<svg
 xmlns="http://www.w3.org/2000/svg"
 xmlns:xlink="http://www.w3.org/1999/xlink"
 width="22px" height="23px" fill="currentColor">
<path d="M21.686,16.059 C21.635,17.194 21.451,17.972 21.186,18.652 C20.629,20.089 19.488,21.224 18.045,21.780 C17.365,22.043 16.581,22.226 15.440,22.276 C14.295,22.327 13.931,22.339 11.016,22.339 C8.101,22.339 7.736,22.327 6.591,22.276 C5.450,22.226 4.670,22.043 3.986,21.780 C3.273,21.513 2.623,21.090 2.086,20.548 C1.541,20.013 1.118,19.371 0.845,18.652 C0.581,17.976 0.396,17.194 0.346,16.059 C0.296,14.919 0.283,14.556 0.283,11.653 C0.283,8.751 0.296,8.388 0.350,7.244 C0.400,6.108 0.585,5.332 0.849,4.651 C1.118,3.941 1.541,3.294 2.086,2.759 C2.623,2.213 3.269,1.794 3.991,1.523 C4.670,1.260 5.454,1.077 6.595,1.026 C7.740,0.976 8.105,0.963 11.020,0.963 C13.935,0.963 14.300,0.976 15.449,1.031 C16.589,1.081 17.370,1.265 18.053,1.527 C18.766,1.794 19.416,2.216 19.953,2.759 C20.503,3.294 20.922,3.936 21.195,4.655 C21.459,5.332 21.643,6.113 21.694,7.248 C21.744,8.388 21.748,8.751 21.748,11.653 C21.748,14.556 21.736,14.919 21.686,16.059 ZM11.020,8.092 C9.044,8.092 7.442,9.687 7.442,11.653 C7.442,13.620 9.044,15.215 11.020,15.215 C12.995,15.215 14.597,13.620 14.597,11.653 C14.597,9.687 12.995,8.092 11.020,8.092 ZM16.753,4.663 C16.042,4.663 15.466,5.237 15.466,5.945 C15.466,6.653 16.042,7.227 16.753,7.227 C17.464,7.227 18.041,6.653 18.041,5.945 C18.041,5.237 17.464,4.663 16.753,4.663 Z"/>
</svg>