<svg
 xmlns="http://www.w3.org/2000/svg"
 xmlns:xlink="http://www.w3.org/1999/xlink"
 width="12px" height="15px" fill="currentColor">
<path d="M5.854,0.304 C3.024,0.403 0.674,2.611 0.402,5.429 C0.347,5.992 0.379,6.538 0.478,7.061 L0.478,7.061 C0.478,7.061 0.487,7.123 0.516,7.239 C0.604,7.630 0.735,8.010 0.899,8.367 C1.468,9.715 2.785,11.973 5.740,14.429 C5.921,14.580 6.186,14.580 6.371,14.429 C9.325,11.976 10.642,9.718 11.214,8.364 C11.381,8.007 11.509,7.630 11.597,7.237 C11.623,7.123 11.635,7.058 11.635,7.058 L11.635,7.058 C11.702,6.708 11.737,6.349 11.737,5.981 C11.737,2.775 9.083,0.190 5.854,0.304 ZM6.055,8.807 C4.531,8.807 3.296,7.572 3.296,6.048 C3.296,4.524 4.531,3.288 6.055,3.288 C7.579,3.288 8.814,4.524 8.814,6.048 C8.814,7.572 7.579,8.807 6.055,8.807 Z"/>
</svg>