<svg
 xmlns="http://www.w3.org/2000/svg"
 xmlns:xlink="http://www.w3.org/1999/xlink"
 width="25px" height="20px" fill="currentColor">
<path d="M21.304,3.575 L17.864,3.575 L17.864,3.221 C17.864,1.642 16.583,0.361 15.004,0.361 L9.534,0.361 C7.954,0.361 6.674,1.642 6.674,3.221 L6.674,3.575 L3.233,3.575 C1.654,3.575 0.373,4.855 0.373,6.435 L0.373,16.816 C0.373,18.395 1.654,19.676 3.233,19.676 L21.305,19.676 C22.884,19.676 24.165,18.395 24.165,16.816 L24.165,6.435 C24.164,4.854 22.883,3.575 21.304,3.575 ZM12.268,16.709 C9.288,16.709 6.866,14.286 6.866,11.307 C6.866,8.328 9.288,5.905 12.268,5.905 C15.247,5.905 17.670,8.327 17.670,11.307 C17.670,14.286 15.247,16.709 12.268,16.709 ZM15.128,11.307 C15.128,12.882 13.844,14.167 12.268,14.167 C10.692,14.167 9.408,12.882 9.408,11.307 C9.408,9.731 10.692,8.447 12.268,8.447 C13.844,8.447 15.128,9.731 15.128,11.307 Z"/>
</svg>