<svg
 xmlns="http://www.w3.org/2000/svg"
 xmlns:xlink="http://www.w3.org/1999/xlink"
 width="27px" height="27px" fill="currentColor">
<path d="M25.642,19.732 L22.010,16.099 C20.712,14.802 18.507,15.321 17.988,17.007 C17.599,18.176 16.301,18.824 15.134,18.565 C12.539,17.916 9.036,14.542 8.388,11.819 C7.998,10.651 8.777,9.353 9.944,8.964 C11.631,8.445 12.150,6.240 10.853,4.943 L7.220,1.310 C6.182,0.401 4.625,0.401 3.717,1.310 L1.252,3.775 C-1.213,6.369 1.512,13.245 7.609,19.343 C13.707,25.441 20.583,28.295 23.177,25.700 L25.642,23.234 C26.550,22.197 26.550,20.640 25.642,19.732 Z"/>
</svg>