<svg
 xmlns="http://www.w3.org/2000/svg"
 xmlns:xlink="http://www.w3.org/1999/xlink"
 width="35px" height="35px" fill="currentColor">
<path d="M25.091,10.206 L32.759,10.206 C32.769,10.206 32.778,10.205 32.787,10.205 C33.703,12.142 34.242,14.249 34.367,16.433 L25.784,16.433 C25.728,14.278 25.490,12.184 25.091,10.206 ZM21.499,0.997 C24.483,1.719 27.221,3.246 29.447,5.472 C30.295,6.320 31.040,7.244 31.680,8.226 L24.626,8.226 C23.889,5.476 22.825,3.011 21.499,0.997 ZM22.574,8.226 L12.417,8.226 C12.635,7.470 12.880,6.735 13.153,6.026 C13.999,3.831 15.062,1.982 16.285,0.565 C16.686,0.536 17.089,0.522 17.496,0.522 C17.901,0.522 18.305,0.536 18.707,0.565 C19.929,1.982 20.992,3.831 21.838,6.026 C22.111,6.735 22.356,7.470 22.574,8.226 ZM3.311,8.226 C3.950,7.244 4.696,6.320 5.544,5.472 C7.770,3.246 10.508,1.719 13.492,0.997 C12.166,3.011 11.103,5.476 10.365,8.226 L3.311,8.226 ZM9.207,16.433 L0.624,16.433 C0.749,14.249 1.287,12.142 2.204,10.205 C2.213,10.205 2.222,10.206 2.232,10.206 L9.901,10.206 C9.501,12.184 9.263,14.278 9.207,16.433 ZM9.901,24.641 L2.232,24.641 C2.222,24.641 2.213,24.643 2.204,24.643 C1.287,22.706 0.749,20.599 0.624,18.414 L9.207,18.414 C9.263,20.570 9.501,22.664 9.901,24.641 ZM13.492,33.851 C10.508,33.129 7.770,31.601 5.544,29.375 C4.696,28.527 3.950,27.604 3.311,26.622 L10.365,26.622 C11.103,29.372 12.166,31.836 13.492,33.851 ZM12.417,26.622 L22.574,26.622 C22.356,27.378 22.111,28.113 21.837,28.821 C20.992,31.017 19.929,32.865 18.707,34.283 C18.305,34.311 17.901,34.326 17.496,34.326 C17.089,34.326 16.686,34.311 16.284,34.283 C15.062,32.865 13.999,31.017 13.153,28.821 C12.880,28.113 12.635,27.378 12.417,26.622 ZM11.920,10.206 L23.071,10.206 C23.497,12.187 23.745,14.284 23.803,16.433 L11.188,16.433 C11.246,14.284 11.494,12.187 11.920,10.206 ZM23.071,24.641 L11.920,24.641 C11.494,22.660 11.246,20.564 11.188,18.414 L23.803,18.414 C23.745,20.563 23.497,22.660 23.071,24.641 ZM31.680,26.622 C31.040,27.604 30.295,28.527 29.446,29.375 C27.221,31.601 24.483,33.129 21.499,33.851 C22.825,31.836 23.889,29.372 24.626,26.622 L31.680,26.622 ZM25.784,18.414 L34.367,18.414 C34.242,20.599 33.703,22.706 32.787,24.643 C32.778,24.643 32.769,24.641 32.759,24.641 L25.091,24.641 C25.490,22.664 25.728,20.570 25.784,18.414 Z"/>
</svg>