<svg
 xmlns="http://www.w3.org/2000/svg"
 xmlns:xlink="http://www.w3.org/1999/xlink"
 width="52px" height="51px" fill="currentColor">
<path d="M51.753,48.779 L49.632,50.900 L37.372,38.641 C33.503,42.026 28.452,44.094 22.906,44.094 C10.756,44.094 0.906,34.244 0.906,22.094 C0.906,9.943 10.756,0.094 22.906,0.094 C35.057,0.094 44.906,9.943 44.906,22.094 C44.906,27.618 42.855,32.654 39.492,36.518 L51.753,48.779 ZM22.906,2.719 C12.206,2.719 3.531,11.393 3.531,22.094 C3.531,32.794 12.206,41.469 22.906,41.469 C33.607,41.469 42.281,32.794 42.281,22.094 C42.281,11.393 33.607,2.719 22.906,2.719 Z"/>
</svg>