<svg
 xmlns="http://www.w3.org/2000/svg"
 xmlns:xlink="http://www.w3.org/1999/xlink"
 width="32px" height="31px" fill="currentColor">
<path d="M15.914,0.044 C7.532,0.044 0.714,6.863 0.714,15.245 C0.714,23.627 7.532,30.446 15.914,30.446 C24.296,30.446 31.115,23.627 31.115,15.245 C31.115,6.863 24.296,0.044 15.914,0.044 ZM23.057,23.108 C22.754,23.355 22.356,23.479 21.958,23.479 C21.560,23.479 21.162,23.355 20.859,23.108 L14.512,16.774 C14.219,16.538 14.056,16.215 14.056,15.879 L14.056,7.644 C14.056,6.944 14.753,6.378 15.611,6.378 C16.470,6.378 17.166,6.944 17.166,7.644 L17.166,15.354 L23.652,20.841 C24.260,21.336 23.665,22.613 23.057,23.108 Z"/>
</svg>