<svg
 xmlns="http://www.w3.org/2000/svg"
 xmlns:xlink="http://www.w3.org/1999/xlink"
 width="29px" height="32px" fill="currentColor">
<path d="M27.860,24.047 C27.576,24.544 27.257,25.005 26.902,25.466 C26.406,26.140 25.838,26.743 25.271,27.310 C24.774,27.807 24.207,28.304 23.639,28.729 C20.837,30.822 17.468,31.921 13.992,31.921 C10.516,31.921 7.146,30.822 4.344,28.729 C3.777,28.268 3.209,27.807 2.713,27.310 C2.110,26.743 1.578,26.140 1.081,25.466 C0.762,25.040 0.407,24.544 0.123,24.047 C0.017,23.834 -0.019,23.586 0.088,23.373 C0.301,22.876 0.584,22.344 0.904,21.883 C2.500,19.471 5.053,17.875 7.891,17.485 C8.246,17.414 8.636,17.520 8.919,17.733 C10.409,18.833 12.183,19.400 14.027,19.400 C15.871,19.400 17.645,18.833 19.135,17.733 C19.418,17.520 19.809,17.449 20.163,17.485 C23.001,17.875 25.519,19.471 27.151,21.883 C27.470,22.344 27.753,22.841 27.966,23.373 C28.073,23.586 28.037,23.834 27.860,24.047 ZM14.027,16.882 C9.558,16.882 5.905,13.229 5.905,8.759 C5.905,4.290 9.558,0.637 14.027,0.637 C18.496,0.637 22.149,4.290 22.149,8.759 C22.149,13.229 18.496,16.882 14.027,16.882 Z"/>
</svg>