<svg
 xmlns="http://www.w3.org/2000/svg"
 xmlns:xlink="http://www.w3.org/1999/xlink"
 width="28px" height="16px" fill="currentColor">
<path d="M26.888,14.238 C26.818,14.120 26.383,13.175 24.290,11.232 C22.098,9.198 22.392,9.527 25.032,6.010 C26.640,3.867 27.282,2.559 27.081,2.000 C26.890,1.466 25.708,1.607 25.708,1.607 L21.776,1.630 C21.776,1.630 21.485,1.591 21.267,1.720 C21.056,1.848 20.920,2.142 20.920,2.142 C20.920,2.142 20.297,3.800 19.467,5.211 C17.715,8.184 17.014,8.342 16.728,8.157 C16.062,7.727 16.229,6.427 16.229,5.504 C16.229,2.621 16.665,1.419 15.377,1.109 C14.948,1.005 14.634,0.937 13.540,0.925 C12.137,0.910 10.948,0.930 10.276,1.259 C9.828,1.478 9.482,1.968 9.693,1.995 C9.953,2.029 10.542,2.153 10.855,2.579 C11.258,3.127 11.244,4.360 11.244,4.360 C11.244,4.360 11.476,7.753 10.703,8.175 C10.171,8.465 9.443,7.874 7.881,5.175 C7.082,3.793 6.477,2.263 6.477,2.263 C6.477,2.263 6.361,1.978 6.153,1.826 C5.901,1.642 5.548,1.582 5.548,1.582 L1.809,1.605 C1.809,1.605 1.248,1.621 1.042,1.866 C0.859,2.083 1.027,2.531 1.027,2.531 C1.027,2.531 3.955,9.379 7.268,12.831 C10.308,15.996 13.759,15.788 13.759,15.788 L15.323,15.788 C15.323,15.788 15.795,15.737 16.036,15.475 C16.258,15.237 16.250,14.789 16.250,14.789 C16.250,14.789 16.219,12.691 17.194,12.381 C18.154,12.077 19.387,14.409 20.693,15.307 C21.681,15.986 22.432,15.837 22.432,15.837 L25.926,15.788 C25.926,15.788 27.755,15.676 26.888,14.238 Z"/>
</svg>