<svg
 xmlns="http://www.w3.org/2000/svg"
 xmlns:xlink="http://www.w3.org/1999/xlink"
 width="22px" height="22px" fill="currentColor">
<path d="M11.230,0.208 L11.225,0.208 C5.448,0.208 0.750,4.907 0.750,10.684 C0.750,12.977 1.489,15.102 2.745,16.827 L1.439,20.719 L5.466,19.431 C7.123,20.528 9.099,21.162 11.230,21.162 C17.007,21.162 21.704,16.462 21.704,10.684 C21.704,4.908 17.007,0.208 11.230,0.208 ZM17.327,15.004 C17.074,15.716 16.070,16.309 15.270,16.482 C14.723,16.598 14.008,16.691 11.601,15.693 C8.522,14.418 6.539,11.289 6.384,11.085 C6.236,10.882 5.140,9.429 5.140,7.926 C5.140,6.422 5.904,5.690 6.212,5.376 C6.464,5.117 6.882,5.000 7.283,5.000 C7.413,5.000 7.529,5.006 7.634,5.011 C7.942,5.024 8.096,5.043 8.299,5.529 C8.552,6.138 9.167,7.641 9.241,7.796 C9.315,7.951 9.390,8.160 9.285,8.363 C9.187,8.572 9.101,8.666 8.946,8.843 C8.792,9.022 8.645,9.158 8.490,9.349 C8.349,9.515 8.189,9.694 8.367,10.001 C8.545,10.302 9.161,11.307 10.067,12.114 C11.237,13.155 12.185,13.488 12.524,13.630 C12.777,13.734 13.078,13.709 13.263,13.512 C13.497,13.260 13.787,12.840 14.081,12.428 C14.291,12.132 14.555,12.096 14.833,12.200 C15.116,12.298 16.613,13.039 16.920,13.191 C17.228,13.346 17.431,13.420 17.506,13.549 C17.579,13.679 17.579,14.288 17.327,15.004 Z"/>
</svg>