<svg
 xmlns="http://www.w3.org/2000/svg"
 xmlns:xlink="http://www.w3.org/1999/xlink"
 width="45px" height="46px">
<path fill-rule="evenodd"  fill="rgb(0, 0, 0)"
 d="M39.480,45.375 L25.518,45.375 C22.632,45.375 20.283,43.026 20.283,40.139 L20.283,19.197 C20.283,16.310 22.632,13.961 25.518,13.961 L39.480,13.961 C42.367,13.961 44.716,16.310 44.716,19.197 L44.716,40.139 C44.716,43.026 42.367,45.375 39.480,45.375 ZM41.225,19.197 C41.225,18.234 40.442,17.452 39.480,17.452 L25.518,17.452 C24.556,17.452 23.773,18.234 23.773,19.197 L23.773,40.139 C23.773,41.101 24.556,41.884 25.518,41.884 L39.480,41.884 C40.442,41.884 41.225,41.101 41.225,40.139 L41.225,19.197 ZM35.990,38.394 C35.026,38.394 34.244,37.612 34.244,36.649 C34.244,35.685 35.026,34.903 35.990,34.903 C36.954,34.903 37.735,35.685 37.735,36.649 C37.735,37.612 36.954,38.394 35.990,38.394 ZM35.990,31.413 C35.026,31.413 34.244,30.632 34.244,29.668 C34.244,28.704 35.026,27.923 35.990,27.923 C36.954,27.923 37.735,28.704 37.735,29.668 C37.735,30.632 36.954,31.413 35.990,31.413 ZM27.264,20.942 L37.735,20.942 L37.735,24.432 L27.264,24.432 L27.264,20.942 ZM29.009,27.923 C29.973,27.923 30.754,28.704 30.754,29.668 C30.754,30.632 29.973,31.413 29.009,31.413 C28.045,31.413 27.264,30.632 27.264,29.668 C27.264,28.704 28.045,27.923 29.009,27.923 ZM29.009,34.903 C29.973,34.903 30.754,35.685 30.754,36.649 C30.754,37.612 29.973,38.394 29.009,38.394 C28.045,38.394 27.264,37.612 27.264,36.649 C27.264,35.685 28.045,34.903 29.009,34.903 ZM17.491,35.253 L7.019,35.253 L7.019,31.762 L17.491,31.762 L17.491,35.253 ZM7.019,17.800 L17.491,17.800 L17.491,21.291 L7.019,21.291 L7.019,17.800 ZM17.491,28.272 L7.019,28.272 L7.019,24.781 L17.491,24.781 L17.491,28.272 ZM30.754,5.933 C30.754,4.971 29.971,4.188 29.009,4.188 L10.510,4.188 L10.510,11.169 L3.529,11.169 L3.529,40.139 C3.529,41.101 4.312,41.884 5.274,41.884 L17.491,41.884 L17.491,45.375 L5.274,45.375 C2.387,45.375 0.039,43.026 0.039,40.139 L0.039,9.423 C0.039,4.612 3.953,0.698 8.765,0.698 L29.009,0.698 C31.896,0.698 34.244,3.046 34.244,5.933 L34.244,11.169 L30.754,11.169 L30.754,5.933 ZM7.019,4.488 C5.534,5.015 4.356,6.193 3.829,7.678 L7.019,7.678 L7.019,4.488 Z"/>
</svg>