<svg
 xmlns="http://www.w3.org/2000/svg"
 xmlns:xlink="http://www.w3.org/1999/xlink"
 width="60px" height="59px">
<path fill-rule="evenodd"  fill="rgb(0, 0, 0)"
 d="M59.096,46.776 C58.960,47.354 58.534,47.819 57.972,48.007 L51.007,50.328 L48.686,57.292 C48.499,57.854 48.033,58.280 47.456,58.416 C46.879,58.552 46.272,58.380 45.853,57.961 L37.787,49.895 C32.885,51.532 26.991,51.532 22.089,49.895 L14.023,57.961 C13.604,58.380 12.997,58.552 12.420,58.416 C11.843,58.280 11.377,57.855 11.190,57.292 L8.869,50.328 L1.904,48.007 C1.342,47.819 0.916,47.354 0.780,46.776 C0.644,46.199 0.816,45.593 1.236,45.173 L7.909,38.499 C-2.116,21.875 10.411,-0.138 29.938,0.054 C49.468,-0.137 61.989,21.872 51.967,38.499 L58.640,45.173 C59.060,45.593 59.232,46.199 59.096,46.776 ZM5.613,45.635 L10.762,47.351 C11.273,47.522 11.674,47.922 11.845,48.434 L13.562,53.583 L18.646,48.498 C15.249,46.813 12.227,44.363 9.870,41.378 L5.613,45.635 ZM52.054,25.593 C50.843,-3.739 9.037,-3.747 7.822,25.592 C7.822,37.787 17.743,47.708 29.938,47.708 C42.133,47.708 52.054,37.787 52.054,25.593 ZM50.006,41.378 C47.649,44.363 44.627,46.813 41.230,48.498 L46.315,53.583 L48.031,48.434 C48.202,47.922 48.603,47.522 49.114,47.351 L54.263,45.635 L50.006,41.378 ZM11.731,25.592 C11.731,15.553 19.899,7.386 29.938,7.386 C39.977,7.386 48.145,15.553 48.145,25.592 C47.148,49.739 12.732,49.746 11.731,25.592 ZM15.154,25.592 C15.154,33.745 21.786,40.377 29.938,40.377 C38.090,40.377 44.722,33.745 44.722,25.593 C43.913,5.985 15.966,5.979 15.154,25.592 ZM36.819,27.828 L37.035,32.934 C37.059,33.507 36.795,34.054 36.331,34.391 C35.867,34.728 35.265,34.810 34.728,34.610 L29.938,32.827 L25.149,34.610 C24.611,34.810 24.009,34.728 23.546,34.391 C23.082,34.054 22.818,33.507 22.842,32.934 L23.058,27.828 L19.882,23.824 C19.525,23.375 19.418,22.777 19.595,22.232 C19.772,21.686 20.210,21.266 20.763,21.112 L25.686,19.740 L28.512,15.482 C29.166,14.470 30.711,14.469 31.364,15.482 L34.190,19.740 L39.114,21.112 C39.666,21.266 40.104,21.686 40.282,22.232 C40.459,22.777 40.351,23.375 39.995,23.824 L36.819,27.828 ZM32.658,22.865 C32.262,22.755 31.919,22.505 31.692,22.163 L29.938,19.522 L28.185,22.163 C27.957,22.506 27.614,22.755 27.218,22.865 L24.165,23.717 L26.135,26.200 C26.390,26.522 26.521,26.925 26.504,27.336 L26.370,30.503 L29.341,29.397 C29.726,29.254 30.150,29.254 30.535,29.397 L33.506,30.503 L33.372,27.336 C33.355,26.925 33.486,26.522 33.741,26.200 L35.712,23.717 L32.658,22.865 Z"/>
</svg>