<svg
 xmlns="http://www.w3.org/2000/svg"
 xmlns:xlink="http://www.w3.org/1999/xlink"
 width="44px" height="56px">
<path fill-rule="evenodd"  fill="rgb(48, 35, 0)"
 d="M32.229,41.289 L32.229,45.763 C32.229,47.011 31.218,48.022 29.970,48.022 L13.935,48.022 C12.688,48.022 11.676,47.011 11.676,45.763 L11.676,41.283 C4.726,37.491 0.309,30.155 0.309,22.200 C0.309,10.245 10.035,0.519 21.990,0.519 C33.945,0.519 43.671,10.245 43.671,22.200 C43.671,30.173 39.225,37.512 32.229,41.289 ZM21.990,5.036 C12.526,5.036 4.826,12.736 4.826,22.200 C4.826,28.888 8.772,35.027 14.880,37.840 C15.680,38.208 16.193,39.010 16.193,39.891 L16.193,43.505 L27.711,43.505 L27.711,39.891 C27.711,39.006 28.229,38.203 29.034,37.836 C35.181,35.036 39.154,28.898 39.154,22.200 C39.154,12.736 31.454,5.036 21.990,5.036 ZM15.742,51.033 L28.238,51.033 C29.486,51.033 30.497,52.044 30.497,53.291 C30.497,54.539 29.486,55.550 28.238,55.550 L15.742,55.550 C14.494,55.550 13.483,54.539 13.483,53.291 C13.483,52.044 14.494,51.033 15.742,51.033 Z"/>
</svg>