<svg xmlns="http://www.w3.org/2000/svg" width="61.313" height="81.88" viewBox="0 0 61.313 81.88" fill="#f2da4a">>
  <path d="M550.665,1962.07v64.23a8.826,8.826,0,0,0,8.821,8.82h43.672a8.827,8.827,0,0,0,8.821-8.82v-64.23a8.833,8.833,0,0,0-8.821-8.82H559.486A8.833,8.833,0,0,0,550.665,1962.07Zm41.1-4.02v4.02a4.033,4.033,0,0,1-4.024,4.03H574.9a4.033,4.033,0,0,1-4.024-4.03v-4.02h20.893Zm-0.281,38.54a10.443,10.443,0,0,1-20.331,0h20.331Zm-20.331-4.8a10.443,10.443,0,0,1,20.331,0H571.156Zm-0.281,38.54v-4.03a4.025,4.025,0,0,1,4.024-4.02h12.845a4.024,4.024,0,0,1,4.024,4.02v4.03H570.875Zm32.283,0h-6.593v-4.03a8.833,8.833,0,0,0-8.821-8.82H574.9a8.833,8.833,0,0,0-8.821,8.82v4.03h-6.592a4.033,4.033,0,0,1-4.024-4.03v-29.71h10.806a15.244,15.244,0,0,0,30.107,0h10.806v29.71A4.033,4.033,0,0,1,603.158,2030.33Zm4.023-68.26v29.72H596.375a15.242,15.242,0,0,0-30.107,0H555.462v-29.72a4.031,4.031,0,0,1,4.024-4.02h6.592v4.02a8.835,8.835,0,0,0,8.821,8.83h12.845a8.835,8.835,0,0,0,8.821-8.83v-4.02h6.593A4.031,4.031,0,0,1,607.181,1962.07Z" transform="translate(-550.656 -1953.25)"/>
</svg>
