<svg
 xmlns="http://www.w3.org/2000/svg"
 xmlns:xlink="http://www.w3.org/1999/xlink"
 width="58px" height="46px">
<path fill-rule="evenodd"  fill="rgb(48, 35, 0)"
 d="M56.616,7.032 C48.944,-0.640 36.848,-1.070 28.682,5.603 C20.520,-1.068 8.423,-0.643 0.749,7.032 C0.330,7.451 0.095,8.019 0.095,8.611 L0.095,43.751 C0.095,45.733 2.501,46.735 3.907,45.330 C10.302,38.934 20.708,38.935 27.103,45.330 C27.975,46.202 29.390,46.202 30.262,45.330 C36.657,38.934 47.062,38.935 53.458,45.330 C54.859,46.732 57.270,45.738 57.270,43.751 L57.270,8.611 C57.270,8.019 57.035,7.451 56.616,7.032 ZM52.803,39.155 C45.349,34.565 35.611,35.095 28.682,40.744 C21.729,35.074 11.988,34.582 4.562,39.156 L4.562,9.571 C10.927,3.855 20.840,3.927 27.103,10.190 C27.975,11.062 29.390,11.063 30.262,10.191 C36.518,3.935 46.430,3.847 52.803,9.571 L52.803,39.155 ZM48.119,14.492 C49.273,14.927 49.856,16.216 49.421,17.370 C48.986,18.524 47.697,19.107 46.543,18.671 C42.748,17.240 38.576,17.260 34.795,18.728 C33.646,19.173 32.352,18.605 31.905,17.454 C31.458,16.304 32.029,15.010 33.179,14.563 C37.987,12.697 43.293,12.671 48.119,14.492 ZM25.683,17.454 C25.235,18.608 23.938,19.172 22.793,18.728 C19.012,17.260 14.841,17.240 11.045,18.671 C9.891,19.107 8.603,18.524 8.167,17.370 C7.732,16.216 8.315,14.927 9.469,14.492 C14.295,12.671 19.601,12.697 24.409,14.564 C25.559,15.010 26.130,16.304 25.683,17.454 ZM49.421,28.168 C48.986,29.321 47.697,29.904 46.543,29.469 C42.748,28.038 38.576,28.057 34.795,29.526 C33.646,29.971 32.352,29.403 31.905,28.252 C31.458,27.102 32.029,25.808 33.179,25.361 C37.987,23.495 43.293,23.469 48.119,25.290 C49.273,25.725 49.856,27.013 49.421,28.168 ZM25.683,28.252 C25.235,29.407 23.938,29.970 22.793,29.526 C19.012,28.058 14.841,28.038 11.045,29.469 C9.891,29.905 8.603,29.321 8.167,28.168 C7.732,27.013 8.315,25.725 9.469,25.290 C14.295,23.469 19.601,23.495 24.409,25.361 C25.559,25.808 26.130,27.102 25.683,28.252 Z"/>
</svg>