<svg xmlns="http://www.w3.org/2000/svg" width="66.34" height="84.88" viewBox="0 0 66.34 84.88" fill="#f2da4a">>
  <path d="M1092.93,1953.74H1031.3a2.369,2.369,0,0,0-2.37,2.37v80.15a2.493,2.493,0,0,0,4.98,0v-1.83h25.72v1.83a2.472,2.472,0,0,0,2.48,2.37,2.421,2.421,0,0,0,2.43-2.37v-1.83h25.78v1.83a2.421,2.421,0,0,0,2.43,2.37,2.52,2.52,0,0,0,2.54-2.37v-80.15A2.366,2.366,0,0,0,1092.93,1953.74Zm-2.61,16.44h-25.78v-11.46h25.78v11.46Zm-30.69-11.46v11.46h-25.72v-11.46h25.72Zm-25.72,16.37h25.72v54.37h-25.72v-54.37Zm30.63,0h25.78v54.37h-25.78v-54.37Zm-19.04,45.07h-4.73a2.37,2.37,0,1,0,0,4.74h4.73A2.37,2.37,0,1,0,1045.5,2020.16Zm30.82,0h-4.74a2.37,2.37,0,0,0,0,4.74h4.74A2.37,2.37,0,1,0,1076.32,2020.16Z" transform="translate(-1028.94 -1953.75)"/>
</svg>
