<svg
 xmlns="http://www.w3.org/2000/svg"
 xmlns:xlink="http://www.w3.org/1999/xlink"
 width="57px" height="52px">
<path fill-rule="evenodd"  fill="rgb(0, 0, 0)"
 d="M55.196,25.729 L50.516,25.729 C49.610,25.729 48.876,24.994 48.876,24.088 C48.876,23.183 49.610,22.448 50.516,22.448 L55.196,22.448 C56.102,22.448 56.836,23.183 56.836,24.088 C56.836,24.994 56.102,25.729 55.196,25.729 ZM50.174,17.060 C49.854,17.381 49.434,17.541 49.014,17.541 C48.595,17.541 48.175,17.381 47.855,17.060 C47.214,16.420 47.214,15.381 47.855,14.741 L51.164,11.432 C51.804,10.791 52.843,10.791 53.483,11.432 C54.124,12.072 54.124,13.111 53.483,13.751 L50.174,17.060 ZM44.515,47.411 C44.264,47.555 43.984,47.626 43.704,47.626 C43.414,47.626 43.124,47.549 42.866,47.396 L25.114,36.846 L16.953,50.981 C16.649,51.507 16.098,51.802 15.531,51.802 C15.259,51.802 14.983,51.734 14.729,51.592 L7.492,47.532 C7.110,47.317 6.829,46.958 6.713,46.535 C6.597,46.112 6.655,45.660 6.874,45.281 L12.589,35.381 C11.377,34.734 10.380,33.755 9.719,32.574 L5.600,32.574 C2.978,32.574 0.845,30.440 0.845,27.818 L0.845,20.358 C0.845,17.736 2.978,15.603 5.600,15.603 L9.728,15.603 C10.053,15.030 10.461,14.504 10.945,14.048 C12.246,12.824 13.940,12.203 15.721,12.297 L24.061,12.297 L42.847,0.792 C43.354,0.482 43.988,0.470 44.506,0.760 C45.024,1.050 45.344,1.597 45.344,2.191 L45.344,45.986 C45.344,46.575 45.028,47.119 44.515,47.411 ZM8.843,18.883 L5.600,18.883 C4.787,18.883 4.125,19.545 4.125,20.358 L4.125,27.818 C4.125,28.631 4.787,29.293 5.600,29.293 L8.843,29.293 C8.843,29.268 8.841,29.244 8.841,29.220 L8.841,18.957 C8.841,18.932 8.843,18.908 8.843,18.883 ZM10.546,45.483 L14.922,47.938 L21.683,36.227 L15.876,36.227 C15.851,36.284 15.824,36.340 15.793,36.395 L10.546,45.483 ZM22.883,15.578 C22.883,15.578 15.609,15.577 15.576,15.575 C14.687,15.521 13.842,15.827 13.193,16.437 C12.513,17.078 12.122,17.997 12.122,18.957 L12.122,29.220 C12.122,31.172 13.703,32.801 15.729,32.947 L22.883,32.947 L22.883,15.578 ZM42.064,5.119 L26.164,14.857 L26.164,33.654 L42.064,43.102 L42.064,5.119 ZM50.174,31.116 L53.483,34.425 C54.124,35.066 54.124,36.105 53.483,36.745 C53.163,37.065 52.743,37.226 52.323,37.226 C51.904,37.226 51.484,37.066 51.164,36.745 L47.855,33.436 C47.214,32.795 47.214,31.757 47.855,31.116 C48.495,30.476 49.534,30.476 50.174,31.116 Z"/>
</svg>