<svg
 xmlns="http://www.w3.org/2000/svg"
 xmlns:xlink="http://www.w3.org/1999/xlink"
 width="49px" height="49px">
<path fill-rule="evenodd"  fill="rgb(48, 35, 0)"
 d="M24.187,48.748 C37.610,48.748 48.373,37.807 48.373,24.562 C48.373,11.226 37.523,0.376 24.187,0.376 C10.851,0.376 0.001,11.226 0.001,24.562 C0.001,37.835 10.793,48.748 24.187,48.748 ZM14.571,41.261 L14.571,28.387 L24.187,22.599 L33.803,28.387 L33.803,41.261 C27.866,44.694 20.518,44.700 14.571,41.261 ZM4.912,24.562 C4.912,13.933 13.559,5.287 24.187,5.287 C34.815,5.287 43.462,13.933 43.462,24.562 C43.462,29.400 41.669,33.827 38.714,37.215 L38.714,26.999 C38.714,26.138 38.263,25.339 37.525,24.895 L25.453,17.630 C24.674,17.161 23.700,17.161 22.921,17.630 L10.849,24.895 C10.111,25.339 9.660,26.138 9.660,26.999 L9.660,37.216 C6.705,33.827 4.912,29.400 4.912,24.562 Z"/>
</svg>