<svg
 xmlns="http://www.w3.org/2000/svg"
 xmlns:xlink="http://www.w3.org/1999/xlink"
 width="48px" height="47px">
<path fill-rule="evenodd"  fill="rgb(4, 4, 4)"
 d="M47.056,19.807 L47.056,37.727 C47.056,38.734 46.240,39.550 45.233,39.550 C44.227,39.550 43.411,38.734 43.411,37.727 L43.411,20.661 L23.729,4.259 L4.048,20.661 L4.048,43.073 L23.694,43.073 C24.700,43.073 25.516,43.889 25.516,44.895 C25.516,45.902 24.700,46.718 23.694,46.718 L2.225,46.718 C1.219,46.718 0.403,45.902 0.403,44.895 L0.403,19.807 C0.403,19.266 0.643,18.753 1.058,18.407 L22.562,0.487 C23.238,-0.076 24.220,-0.076 24.896,0.487 L46.400,18.407 C46.816,18.753 47.056,19.266 47.056,19.807 ZM39.345,43.607 C40.057,44.318 40.057,45.472 39.345,46.184 C38.633,46.896 37.479,46.896 36.768,46.184 L28.812,38.228 C21.747,42.055 12.911,36.970 12.911,28.741 C12.911,22.795 17.748,17.958 23.694,17.958 C33.056,17.958 37.902,29.085 31.696,35.958 L39.345,43.607 ZM23.694,35.878 C27.629,35.878 30.831,32.676 30.831,28.741 C30.831,24.805 27.629,21.603 23.694,21.603 C19.758,21.603 16.556,24.805 16.556,28.741 C16.556,32.676 19.758,35.878 23.694,35.878 Z"/>
</svg>