<svg
 xmlns="http://www.w3.org/2000/svg"
 xmlns:xlink="http://www.w3.org/1999/xlink"
 width="44px" height="45px">
<path fill-rule="evenodd"  fill="rgb(0, 0, 0)"
 d="M42.090,44.215 L33.051,44.215 C32.074,44.215 31.283,43.423 31.283,42.446 C31.283,41.470 32.074,40.678 33.051,40.678 L37.964,40.678 L25.976,28.690 C25.325,28.039 25.325,26.983 25.976,26.333 L25.976,26.332 C26.627,25.681 27.683,25.681 28.334,26.333 L40.322,38.320 L40.322,33.407 C40.322,32.431 41.114,31.639 42.090,31.639 C43.067,31.639 43.859,32.431 43.859,33.407 L43.859,42.446 C43.859,43.423 43.067,44.215 42.090,44.215 ZM42.090,12.625 C41.114,12.625 40.322,11.833 40.322,10.856 L40.322,5.943 L28.334,17.931 C27.683,18.582 26.627,18.582 25.976,17.931 C25.325,17.280 25.325,16.224 25.976,15.573 L25.976,15.573 L37.964,3.585 L33.051,3.585 C32.074,3.585 31.283,2.793 31.283,1.817 C31.283,0.840 32.074,0.048 33.051,0.048 L42.090,0.048 C43.067,0.048 43.859,0.840 43.859,1.817 L43.859,10.856 C43.859,11.833 43.067,12.625 42.090,12.625 ZM6.605,40.678 L11.518,40.678 C12.495,40.678 13.286,41.470 13.286,42.446 C13.286,43.423 12.495,44.215 11.518,44.215 L2.479,44.215 C1.502,44.215 0.710,43.423 0.710,42.446 L0.710,33.407 C0.710,32.431 1.502,31.639 2.479,31.639 C3.455,31.639 4.247,32.431 4.247,33.407 L4.247,38.320 L16.235,26.333 C16.886,25.681 17.942,25.681 18.593,26.332 C18.593,26.332 18.593,26.333 18.593,26.333 C19.244,26.983 19.244,28.039 18.593,28.690 L6.605,40.678 ZM18.593,17.931 C17.942,18.582 16.886,18.582 16.235,17.931 L4.247,5.943 L4.247,10.856 C4.247,11.833 3.455,12.625 2.479,12.625 C1.502,12.625 0.710,11.833 0.710,10.856 L0.710,1.817 C0.710,0.840 1.502,0.048 2.479,0.048 L11.518,0.048 C12.495,0.048 13.286,0.840 13.286,1.817 C13.286,2.793 12.495,3.585 11.518,3.585 L6.605,3.585 L18.593,15.573 L18.593,15.573 C19.244,16.224 19.244,17.280 18.593,17.931 C18.593,17.931 18.593,17.931 18.593,17.931 Z"/>
</svg>