<svg xmlns="http://www.w3.org/2000/svg" width="85.563" height="85.59" viewBox="0 0 85.563 85.59" fill="#f2da4a">
  <path d="M171.934,1963.97a42.8,42.8,0,1,0,12.532,30.26A42.513,42.513,0,0,0,171.934,1963.97Zm-3.546,56.97a37.773,37.773,0,1,1,11.064-26.71A37.508,37.508,0,0,1,168.388,2020.94Zm-23.367-52.62H129.979a2.512,2.512,0,0,0-2.507,2.51v48.47a2.507,2.507,0,1,0,5.014,0v-15.87h12.535A17.555,17.555,0,0,0,145.021,1968.32Zm0,30.09H132.486v-25.07h12.535A12.535,12.535,0,1,1,145.021,1998.41Z" transform="translate(-98.906 -1951.44)"/>
</svg>
