<svg xmlns="http://www.w3.org/2000/svg" width="79.53" height="87.59" viewBox="0 0 79.53 87.59" fill="#f2da4a">>
  <path d="M1554.79,1986.46h-4.95v-2.57a2.569,2.569,0,0,0-2.57-2.57h-51.35a2.569,2.569,0,0,0-2.57,2.57v16.29a38.558,38.558,0,0,0,1.97,12.18,22.058,22.058,0,0,0,7.17,10.22h-11.7a2.567,2.567,0,0,0-2.57,2.56,12.855,12.855,0,0,0,12.84,12.84h41.08a12.846,12.846,0,0,0,12.83-12.84,2.559,2.559,0,0,0-2.56-2.56h-11.7a22.326,22.326,0,0,0,4.7-5.16c9.39-.35,16.56-4.5,20.79-12.07C1570.85,1997.03,1564.5,1986.46,1554.79,1986.46Zm-5.39,41.25a7.723,7.723,0,0,1-7.26,5.14h-41.08a7.726,7.726,0,0,1-7.27-5.14h55.61Zm-4.7-27.53a33.2,33.2,0,0,1-1.7,10.54,17.7,17.7,0,0,1-16.93,11.86h-8.95a17.708,17.708,0,0,1-16.93-11.86,33.481,33.481,0,0,1-1.7-10.54v-13.72h46.21v13.72h0Zm17.02,2.67a17.782,17.782,0,0,1-13.75,9.2,38.73,38.73,0,0,0,1.87-11.87v-8.59h4.95C1560.58,1991.59,1564.45,1997.95,1561.72,2002.85Zm-51.41-37.18a8.808,8.808,0,0,0,3.89-7.36,9.1,9.1,0,0,0-3.89-7.53,2.567,2.567,0,0,0-2.85,4.27,3.954,3.954,0,0,1,1.61,3.26,3.628,3.628,0,0,1-1.61,3.08,8.748,8.748,0,0,0,0,14.55,2.571,2.571,0,0,0,2.85-4.28A3.6,3.6,0,0,1,1510.31,1965.67Zm12.84,0a8.808,8.808,0,0,0,3.89-7.36,9.1,9.1,0,0,0-3.89-7.53,2.567,2.567,0,0,0-2.85,4.27,3.954,3.954,0,0,1,1.61,3.26,3.628,3.628,0,0,1-1.61,3.08,8.748,8.748,0,0,0,0,14.55,2.571,2.571,0,0,0,2.85-4.28A3.591,3.591,0,0,1,1523.15,1965.67Zm12.84,0a8.833,8.833,0,0,0,3.89-7.36,9.125,9.125,0,0,0-3.89-7.53,2.567,2.567,0,0,0-2.85,4.27,3.945,3.945,0,0,1,1.6,3.26,3.619,3.619,0,0,1-1.6,3.08,8.748,8.748,0,0,0,0,14.55,2.571,2.571,0,0,0,2.85-4.28A3.591,3.591,0,0,1,1535.99,1965.67Z" transform="translate(-1488.22 -1950.38)"/>
</svg>
