<svg
 xmlns="http://www.w3.org/2000/svg"
 xmlns:xlink="http://www.w3.org/1999/xlink"
 width="56px" height="56px">
<path fill-rule="evenodd"  fill="rgb(0, 0, 0)"
 d="M50.670,34.755 L49.490,34.755 C49.106,35.955 48.622,37.121 48.042,38.242 L48.879,39.078 C50.907,41.104 50.851,44.350 48.879,46.320 L46.411,48.787 C44.439,50.762 41.193,50.811 39.170,48.786 L38.334,47.950 C37.214,48.529 36.048,49.014 34.848,49.397 L34.848,50.578 C34.848,53.400 32.551,55.697 29.728,55.697 L26.238,55.697 C23.415,55.697 21.118,53.400 21.118,50.578 L21.118,49.397 C19.918,49.013 18.752,48.529 17.632,47.949 L16.795,48.786 C14.768,50.816 11.522,50.756 9.554,48.786 L7.087,46.319 C5.116,44.350 5.059,41.104 7.088,39.078 L7.924,38.242 C7.344,37.121 6.860,35.955 6.477,34.755 L5.296,34.755 C2.473,34.755 0.177,32.458 0.177,29.636 L0.177,26.145 C0.177,23.322 2.473,21.025 5.296,21.025 L6.477,21.025 C6.860,19.825 7.344,18.659 7.924,17.539 L7.087,16.703 C5.060,14.677 5.116,11.431 7.088,9.461 L9.555,6.994 C11.527,5.019 14.773,4.970 16.796,6.995 L17.632,7.831 C18.752,7.251 19.918,6.767 21.118,6.384 L21.118,5.203 C21.118,2.380 23.415,0.084 26.238,0.084 L29.729,0.084 C32.551,0.084 34.848,2.380 34.848,5.203 L34.848,6.384 C36.048,6.767 37.214,7.251 38.334,7.831 L39.171,6.994 C41.198,4.965 44.444,5.025 46.412,6.995 L48.879,9.462 C50.851,11.431 50.907,14.676 48.879,16.703 L48.042,17.539 C48.622,18.659 49.106,19.825 49.490,21.025 L50.670,21.025 C53.493,21.025 55.790,23.322 55.790,26.145 L55.790,29.636 C55.790,32.458 53.493,34.755 50.670,34.755 ZM52.531,26.145 C52.531,25.119 51.696,24.284 50.670,24.284 L48.265,24.284 C47.522,24.284 46.873,23.781 46.687,23.062 C46.236,21.315 45.541,19.640 44.621,18.084 C44.242,17.444 44.345,16.628 44.871,16.103 L46.575,14.398 C47.312,13.662 47.293,12.483 46.576,11.767 L44.108,9.298 C43.392,8.582 42.212,8.561 41.476,9.298 L39.772,11.003 C39.246,11.529 38.430,11.632 37.790,11.253 C36.234,10.333 34.559,9.638 32.812,9.187 C32.092,9.001 31.590,8.352 31.590,7.609 L31.590,5.203 C31.590,4.177 30.755,3.342 29.729,3.342 L26.238,3.342 C25.212,3.342 24.377,4.177 24.377,5.203 L24.377,7.609 C24.377,8.352 23.875,9.001 23.155,9.186 C21.408,9.637 19.733,10.333 18.177,11.253 C17.536,11.632 16.721,11.528 16.195,11.003 L14.491,9.298 C13.757,8.563 12.577,8.580 11.860,9.298 L9.391,11.766 C8.677,12.480 8.653,13.660 9.391,14.398 L11.096,16.102 C11.622,16.628 11.724,17.443 11.346,18.084 C10.426,19.640 9.730,21.315 9.280,23.062 C9.094,23.781 8.445,24.284 7.702,24.284 L5.296,24.284 C4.270,24.284 3.435,25.119 3.435,26.145 L3.435,29.636 C3.435,30.662 4.270,31.496 5.296,31.496 L7.702,31.496 C8.445,31.496 9.094,31.999 9.279,32.719 C9.730,34.466 10.426,36.141 11.346,37.697 C11.724,38.337 11.621,39.152 11.095,39.678 L9.391,41.382 C8.655,42.118 8.674,43.298 9.391,44.014 L11.859,46.482 C12.575,47.199 13.755,47.220 14.490,46.483 L16.195,44.778 C16.583,44.391 17.389,44.062 18.177,44.528 C19.733,45.448 21.408,46.143 23.155,46.594 C23.874,46.780 24.377,47.429 24.377,48.172 L24.377,50.578 C24.377,51.604 25.212,52.439 26.238,52.439 L29.729,52.439 C30.755,52.439 31.590,51.604 31.590,50.578 L31.590,48.172 C31.590,47.429 32.092,46.780 32.812,46.594 C34.559,46.143 36.234,45.448 37.790,44.528 C38.430,44.149 39.245,44.252 39.772,44.778 L41.476,46.482 C42.210,47.218 43.390,47.201 44.107,46.483 L46.575,44.014 C47.290,43.300 47.314,42.121 46.576,41.383 L44.871,39.678 C44.345,39.153 44.242,38.337 44.621,37.697 C45.541,36.141 46.236,34.466 46.687,32.719 C46.873,31.999 47.522,31.497 48.265,31.497 L50.670,31.497 C51.696,31.497 52.531,30.662 52.531,29.636 L52.531,26.145 ZM27.983,39.991 C21.311,39.991 15.883,34.563 15.883,27.890 C15.883,21.218 21.311,15.790 27.983,15.790 C34.655,15.790 40.084,21.218 40.084,27.890 C40.084,34.563 34.655,39.991 27.983,39.991 ZM27.983,19.049 C23.108,19.049 19.142,23.015 19.142,27.890 C19.142,32.766 23.108,36.732 27.983,36.732 C32.859,36.732 36.825,32.766 36.825,27.890 C36.825,23.015 32.859,19.049 27.983,19.049 Z"/>
</svg>