<svg
 xmlns="http://www.w3.org/2000/svg"
 xmlns:xlink="http://www.w3.org/1999/xlink"
 width="67px" height="67px">
<path fill-rule="evenodd"  fill="rgb(254, 219, 49)"
 d="M60.912,66.666 L38.964,66.666 C38.256,66.666 37.681,66.091 37.681,65.382 C37.681,64.673 38.256,64.098 38.964,64.098 L60.912,64.098 C62.328,64.098 63.479,62.947 63.479,61.532 L63.479,6.087 C63.479,4.672 62.328,3.520 60.912,3.520 L5.465,3.520 C4.050,3.520 2.898,4.672 2.898,6.087 L2.898,61.532 C2.898,62.947 4.050,64.098 5.465,64.098 L27.413,64.098 C28.122,64.098 28.697,64.673 28.697,65.382 C28.697,66.091 28.122,66.666 27.413,66.666 L5.465,66.666 C2.634,66.666 0.331,64.362 0.331,61.532 L0.331,6.087 C0.331,3.257 2.634,0.953 5.465,0.953 L60.912,0.953 C63.743,0.953 66.046,3.257 66.046,6.087 L66.046,61.532 C66.046,64.362 63.743,66.666 60.912,66.666 ZM33.189,64.098 C33.898,64.098 34.472,64.673 34.472,65.382 C34.472,66.091 33.898,66.666 33.189,66.666 C32.480,66.666 31.905,66.091 31.905,65.382 C31.905,64.673 32.480,64.098 33.189,64.098 ZM25.488,54.345 L17.787,54.345 C17.078,54.345 16.503,53.770 16.503,53.061 L16.503,14.558 C16.503,13.849 17.078,13.275 17.787,13.275 L35.114,13.275 C43.253,13.275 49.874,19.895 49.874,28.034 C49.874,36.172 43.253,42.794 35.114,42.794 L26.771,42.794 L26.771,53.061 C26.771,53.770 26.196,54.345 25.488,54.345 ZM35.114,40.227 C41.837,40.227 47.307,34.757 47.307,28.034 C47.307,21.311 41.837,15.841 35.114,15.841 L19.070,15.841 L19.070,51.777 L24.204,51.777 L24.204,41.510 C24.204,40.801 24.779,40.227 25.488,40.227 L35.114,40.227 ZM24.204,33.810 L24.204,22.259 C24.204,21.550 24.779,20.975 25.488,20.975 L35.114,20.975 C39.006,20.975 42.173,24.142 42.173,28.034 C42.173,31.927 39.006,35.093 35.114,35.093 L25.488,35.093 C24.779,35.093 24.204,34.518 24.204,33.810 ZM26.771,32.526 L35.114,32.526 C37.591,32.526 39.606,30.511 39.606,28.034 C39.606,25.557 37.591,23.542 35.114,23.542 L26.771,23.542 L26.771,32.526 Z"/>
</svg>