<svg
 xmlns="http://www.w3.org/2000/svg"
 xmlns:xlink="http://www.w3.org/1999/xlink"
 width="58px" height="58px">
<path fill-rule="evenodd"  fill="rgb(254, 219, 49)"
 d="M54.352,12.668 L52.249,12.668 L52.249,19.850 C52.249,32.607 41.870,42.987 29.111,42.987 C16.353,42.987 5.973,32.607 5.973,19.850 L5.973,12.668 L3.871,12.668 C2.023,12.668 0.520,11.164 0.520,9.317 L0.520,3.336 C0.520,1.488 2.023,-0.015 3.870,-0.015 L54.352,-0.015 C56.199,-0.015 57.702,1.488 57.702,3.336 L57.702,9.317 C57.702,11.164 56.199,12.668 54.352,12.668 ZM9.324,19.850 C9.324,30.760 18.200,39.636 29.111,39.636 C40.022,39.636 48.899,30.760 48.899,19.850 L48.899,12.668 L9.324,12.668 L9.324,19.850 ZM54.352,3.336 L3.870,3.336 L3.870,9.317 C3.872,9.317 54.353,9.317 54.354,9.317 L54.352,3.336 ZM29.111,36.204 C23.569,36.204 19.060,31.694 19.060,26.153 C19.060,20.610 23.569,16.101 29.111,16.101 C34.654,16.101 39.163,20.610 39.163,26.153 C39.163,31.694 34.654,36.204 29.111,36.204 ZM29.111,19.451 C25.416,19.451 22.410,22.457 22.410,26.153 C22.410,29.847 25.416,32.853 29.111,32.853 C32.806,32.853 35.812,29.847 35.812,26.152 C35.812,22.457 32.806,19.451 29.111,19.451 ZM29.111,27.827 C28.186,27.827 27.436,27.077 27.436,26.153 C27.436,25.227 28.186,24.477 29.111,24.477 C30.036,24.477 30.786,25.227 30.786,26.153 C30.786,27.077 30.036,27.827 29.111,27.827 ZM1.913,38.959 C2.826,38.803 3.691,39.416 3.847,40.328 C5.067,47.466 10.262,52.681 17.425,53.906 C18.337,54.062 18.950,54.927 18.794,55.839 C18.638,56.751 17.772,57.364 16.860,57.208 C8.313,55.747 2.006,49.439 0.544,40.892 C0.388,39.981 1.001,39.115 1.913,38.959 ZM7.398,40.207 C7.242,39.296 7.855,38.430 8.767,38.274 C9.679,38.118 10.545,38.731 10.701,39.642 C11.379,43.611 14.097,46.365 18.111,47.052 C19.022,47.208 19.635,48.073 19.480,48.985 C19.324,49.897 18.457,50.510 17.546,50.354 C12.153,49.433 8.320,45.597 7.398,40.207 ZM40.112,47.052 C41.740,46.773 43.164,46.157 44.344,45.222 C46.104,43.830 47.144,41.848 47.522,39.642 C47.678,38.731 48.543,38.117 49.455,38.274 C50.367,38.430 50.980,39.296 50.824,40.207 C49.904,45.590 46.078,49.431 40.676,50.354 C39.766,50.510 38.899,49.899 38.743,48.985 C38.587,48.073 39.200,47.208 40.112,47.052 ZM40.797,53.906 C48.080,52.660 53.175,47.345 54.376,40.328 C54.532,39.416 55.397,38.803 56.309,38.959 C57.221,39.115 57.834,39.981 57.678,40.892 C56.212,49.466 49.877,55.752 41.362,57.208 C40.452,57.364 39.585,56.753 39.428,55.839 C39.272,54.927 39.885,54.062 40.797,53.906 Z"/>
</svg>