<svg
 xmlns="http://www.w3.org/2000/svg"
 xmlns:xlink="http://www.w3.org/1999/xlink"
 width="66px" height="81px">
<path fill-rule="evenodd"  fill="rgb(254, 219, 49)"
 d="M61.453,6.266 L40.830,6.266 C40.102,2.708 36.947,0.022 33.176,0.022 C29.406,0.022 26.250,2.708 25.522,6.266 L4.900,6.266 C2.583,6.266 0.698,8.151 0.698,10.468 L0.698,55.100 C0.698,57.417 2.583,59.302 4.900,59.302 L24.491,59.302 L18.128,78.259 C17.853,79.080 18.295,79.969 19.116,80.245 C19.282,80.301 19.450,80.327 19.616,80.327 C20.271,80.327 20.883,79.913 21.103,79.257 L27.800,59.302 L38.552,59.302 L45.250,79.257 C45.470,79.913 46.081,80.327 46.737,80.327 C46.902,80.327 47.071,80.301 47.236,80.245 C48.057,79.969 48.500,79.080 48.224,78.259 L41.861,59.302 L61.453,59.302 C63.770,59.302 65.655,57.417 65.655,55.100 L65.655,10.468 C65.655,8.151 63.770,6.266 61.453,6.266 ZM33.176,3.159 C35.204,3.159 36.935,4.457 37.581,6.266 L28.772,6.266 C29.418,4.457 31.148,3.159 33.176,3.159 ZM54.218,56.165 L49.393,56.165 M46.256,56.165 L41.851,56.165 M38.714,56.165 L34.745,56.165 M31.607,56.165 L27.053,56.165 M23.916,56.165 L20.274,56.165 M17.137,56.165 L12.937,56.165 M9.799,56.165 L4.899,56.165 C4.312,56.165 3.834,55.687 3.834,55.100 L3.834,10.468 C3.834,9.880 4.312,9.403 4.899,9.403 L26.932,9.403 L39.420,9.403 L61.453,9.403 C62.040,9.403 62.517,9.880 62.517,10.468 L62.517,55.100 L62.517,55.100 C62.517,55.687 62.040,56.165 61.453,56.165 L57.356,56.165 "/>
</svg>