<svg
 xmlns="http://www.w3.org/2000/svg"
 xmlns:xlink="http://www.w3.org/1999/xlink"
 width="66px" height="66px">
<path fill-rule="evenodd"  fill="rgb(254, 219, 49)"
 d="M64.948,21.369 C64.946,21.374 64.945,21.378 64.943,21.381 C64.601,22.136 63.774,24.236 62.816,26.668 C61.477,30.069 59.810,34.302 58.394,37.616 C56.552,41.923 55.714,43.152 52.420,46.374 L48.078,50.620 L48.589,52.693 L52.207,52.693 C52.907,52.693 53.474,53.260 53.474,53.960 L53.474,64.101 C53.474,64.801 52.907,65.369 52.207,65.369 L13.480,65.369 C12.780,65.369 12.212,64.801 12.212,64.101 L12.212,53.960 C12.212,53.260 12.780,52.693 13.480,52.693 L17.098,52.693 L17.609,50.620 L13.267,46.374 C9.983,43.162 9.154,41.953 7.351,37.750 C7.075,37.106 7.373,36.361 8.016,36.085 C8.660,35.809 9.405,36.107 9.681,36.750 C11.349,40.639 12.000,41.589 15.040,44.561 L19.899,49.314 C20.220,49.628 20.351,50.087 20.244,50.523 L19.709,52.693 L30.835,52.693 C31.370,46.576 27.143,43.183 23.390,40.170 C21.963,39.024 20.614,37.942 19.736,36.815 C19.384,36.362 18.218,34.811 16.985,33.169 C15.813,31.610 14.602,29.996 14.263,29.562 C13.974,29.190 13.418,29.119 13.050,29.404 C12.776,29.617 12.791,30.138 13.093,30.952 C14.169,33.850 15.506,36.746 16.761,38.897 C17.114,39.502 16.910,40.278 16.306,40.631 C15.700,40.984 14.924,40.780 14.572,40.175 C13.246,37.904 11.841,34.864 10.716,31.835 C10.326,30.784 10.255,29.943 10.369,29.272 L4.905,19.777 C4.464,19.044 3.881,18.750 3.382,19.008 C3.039,19.185 2.749,19.641 3.056,20.342 C3.426,21.159 4.223,23.183 5.231,25.742 L5.880,27.389 C6.137,28.041 5.817,28.777 5.165,29.034 C4.514,29.290 3.778,28.971 3.521,28.320 L2.871,26.670 C1.913,24.237 1.086,22.136 0.744,21.381 C0.743,21.378 0.741,21.375 0.739,21.370 C-0.169,19.313 0.795,17.492 2.216,16.756 C3.627,16.026 5.752,16.255 7.086,18.482 C7.089,18.489 7.093,18.495 7.097,18.501 L12.023,27.065 C13.447,26.332 15.242,26.693 16.263,28.004 C16.615,28.456 17.779,30.006 19.012,31.646 C20.185,33.207 21.397,34.822 21.736,35.257 C22.433,36.151 23.668,37.143 24.976,38.192 C27.846,40.496 31.463,43.400 32.846,47.821 C33.330,46.280 34.119,44.811 35.218,43.396 C35.647,42.843 36.443,42.743 36.997,43.172 C37.549,43.602 37.649,44.398 37.220,44.951 C35.361,47.346 34.597,49.829 34.851,52.693 L45.978,52.693 L45.443,50.523 C45.336,50.087 45.467,49.628 45.788,49.314 L50.647,44.561 C53.696,41.579 54.355,40.614 56.063,36.618 C57.465,33.340 59.124,29.125 60.457,25.739 C61.465,23.181 62.261,21.158 62.631,20.342 C62.938,19.640 62.647,19.185 62.305,19.008 C61.806,18.750 61.223,19.044 60.781,19.777 L55.317,29.272 C55.431,29.943 55.360,30.784 54.970,31.835 C53.846,34.864 52.441,37.904 51.115,40.175 C50.762,40.780 49.986,40.984 49.381,40.631 C48.777,40.278 48.572,39.502 48.925,38.897 C50.180,36.746 51.517,33.850 52.593,30.952 C52.896,30.138 52.910,29.617 52.637,29.404 C52.268,29.119 51.713,29.191 51.424,29.562 C51.085,29.996 49.873,31.610 48.702,33.169 C47.468,34.811 46.303,36.362 45.950,36.815 C45.598,37.268 45.146,37.744 44.570,38.270 C44.053,38.742 43.251,38.706 42.779,38.189 C42.307,37.672 42.344,36.870 42.860,36.397 C43.330,35.969 43.686,35.596 43.950,35.257 C44.290,34.822 45.502,33.207 46.674,31.647 C47.907,30.006 49.071,28.456 49.424,28.004 C50.444,26.693 52.239,26.333 53.663,27.065 L58.590,18.502 C58.593,18.495 58.597,18.489 58.601,18.482 C59.934,16.255 62.060,16.027 63.470,16.756 C64.892,17.492 65.855,19.313 64.948,21.369 ZM31.575,55.228 L18.100,55.228 L18.092,55.228 L18.087,55.228 L14.747,55.228 L14.747,62.834 L31.575,62.834 L31.575,55.228 ZM47.595,55.228 L47.587,55.228 L34.111,55.228 L34.111,62.834 L50.939,62.834 L50.939,55.228 L47.600,55.228 L47.595,55.228 ZM47.136,60.299 L47.135,60.299 C46.435,60.299 45.867,59.731 45.867,59.031 C45.867,58.331 46.435,57.764 47.135,57.764 C47.835,57.764 48.403,58.331 48.403,59.031 C48.403,59.731 47.836,60.299 47.136,60.299 ZM18.551,57.764 L18.552,57.764 C19.251,57.764 19.819,58.331 19.819,59.031 C19.819,59.731 19.251,60.299 18.552,60.299 C17.851,60.299 17.283,59.731 17.283,59.031 C17.283,58.331 17.850,57.764 18.551,57.764 ZM40.745,39.713 C41.216,40.230 41.179,41.032 40.661,41.503 L40.660,41.504 C40.417,41.724 40.112,41.833 39.808,41.833 C39.463,41.833 39.119,41.694 38.869,41.419 C38.398,40.900 38.436,40.099 38.955,39.628 C39.473,39.157 40.275,39.195 40.745,39.713 ZM32.843,35.960 C27.950,35.960 23.969,31.980 23.969,27.087 C23.969,24.078 25.476,21.417 27.773,19.812 L27.773,1.735 C27.773,1.035 28.340,0.467 29.040,0.467 L32.843,0.467 C33.180,0.467 33.502,0.601 33.740,0.839 L37.542,4.641 C37.780,4.879 37.914,5.201 37.914,5.538 L37.914,7.522 C37.914,7.859 37.780,8.181 37.542,8.419 L35.379,10.583 L35.379,12.068 L37.542,14.232 C37.780,14.470 37.914,14.792 37.914,15.129 L37.914,19.812 C40.211,21.417 41.717,24.078 41.717,27.087 C41.717,31.980 37.736,35.960 32.843,35.960 ZM35.379,15.654 L33.214,13.490 C32.976,13.252 32.843,12.930 32.843,12.593 L32.843,10.058 C32.843,9.721 32.976,9.400 33.214,9.162 L35.379,6.997 L35.379,6.063 L32.318,3.002 L30.308,3.002 L30.308,18.585 C31.112,18.344 31.962,18.213 32.843,18.213 C33.724,18.213 34.575,18.344 35.379,18.585 L35.379,15.654 ZM32.843,20.749 C29.348,20.749 26.505,23.593 26.505,27.087 C26.505,30.582 29.348,33.425 32.843,33.425 C36.338,33.425 39.181,30.582 39.181,27.087 C39.181,23.593 36.338,20.749 32.843,20.749 ZM32.844,30.890 L32.843,30.890 C32.142,30.890 31.575,30.322 31.575,29.623 C31.575,28.922 32.142,28.355 32.843,28.355 C33.543,28.355 34.111,28.922 34.111,29.623 C34.111,30.322 33.544,30.890 32.844,30.890 ZM6.077,31.400 C6.721,31.124 7.465,31.422 7.741,32.065 L7.741,32.066 C8.017,32.709 7.719,33.455 7.076,33.731 C6.913,33.801 6.743,33.833 6.577,33.833 C6.085,33.833 5.617,33.545 5.411,33.065 C5.136,32.421 5.433,31.676 6.077,31.400 Z"/>
</svg>