<svg
 xmlns="http://www.w3.org/2000/svg"
 xmlns:xlink="http://www.w3.org/1999/xlink"
 width="65px" height="71px">
<path fill-rule="evenodd"  fill="rgb(254, 219, 49)"
 d="M60.611,45.712 L59.024,69.750 C58.979,70.445 58.402,70.986 57.705,70.985 L6.414,70.985 C6.375,70.985 6.335,70.984 6.296,70.980 C5.569,70.915 5.032,70.273 5.097,69.546 L6.183,57.341 C4.393,56.881 3.141,55.267 3.143,53.418 C3.145,51.184 4.959,49.375 7.193,49.377 L17.680,49.377 L17.680,4.357 C17.680,2.003 19.588,0.095 21.942,0.095 C24.297,0.094 26.206,2.003 26.206,4.357 L26.206,49.377 L31.631,49.377 L31.391,45.712 C29.395,45.356 27.940,43.622 27.937,41.594 L27.937,41.154 C27.940,38.843 29.812,36.970 32.123,36.967 L59.876,36.967 C62.187,36.969 64.060,38.842 64.063,41.154 L64.063,41.594 C64.060,43.621 62.606,45.355 60.611,45.712 ZM38.680,68.341 L56.467,68.341 L57.955,45.778 L34.043,45.778 L34.278,49.374 L36.689,49.374 C38.926,49.378 40.738,51.194 40.739,53.432 C40.745,54.511 40.314,55.546 39.544,56.303 C39.031,56.805 38.394,57.162 37.697,57.337 L38.680,68.341 ZM11.638,68.341 L11.638,60.618 C11.638,59.887 12.230,59.295 12.960,59.295 C13.691,59.295 14.283,59.887 14.283,60.618 L14.283,68.341 L17.629,68.341 L17.629,60.618 C17.629,59.887 18.221,59.295 18.952,59.295 C19.682,59.295 20.274,59.887 20.274,60.618 L20.274,68.341 L23.614,68.341 L23.614,60.618 C23.614,59.887 24.206,59.295 24.937,59.295 C25.667,59.295 26.259,59.887 26.259,60.618 L26.259,68.341 L29.603,68.341 L29.603,60.618 C29.603,59.887 30.195,59.295 30.925,59.295 C31.655,59.295 32.247,59.887 32.247,60.618 L32.247,68.341 L36.024,68.341 L35.058,57.484 L8.826,57.484 L7.860,68.341 L11.638,68.341 ZM23.561,4.357 C23.561,3.463 22.837,2.738 21.943,2.738 C21.049,2.738 20.324,3.463 20.324,4.357 L20.324,49.377 L23.561,49.377 L23.561,4.357 ZM24.897,52.021 L24.883,52.021 L19.004,52.021 L18.989,52.021 L7.190,52.021 C6.822,52.019 6.467,52.166 6.208,52.428 L6.211,52.428 C5.943,52.692 5.791,53.051 5.790,53.426 C5.787,54.203 6.415,54.836 7.193,54.839 L36.692,54.839 C37.064,54.837 37.421,54.689 37.685,54.425 C37.950,54.164 38.099,53.807 38.097,53.434 C38.099,52.656 37.470,52.024 36.692,52.021 L24.897,52.021 ZM61.417,41.153 C61.417,40.301 60.727,39.612 59.876,39.611 L32.123,39.611 C31.272,39.612 30.583,40.301 30.582,41.153 L30.582,41.594 C30.583,42.444 31.272,43.135 32.123,43.135 L59.876,43.135 C60.727,43.135 61.417,42.444 61.417,41.594 L61.417,41.153 ZM58.330,25.560 L56.445,25.560 C55.714,25.560 55.122,24.968 55.122,24.238 C55.122,23.507 55.714,22.915 56.445,22.915 L58.330,22.915 C59.060,22.915 59.652,23.507 59.652,24.238 C59.652,24.968 59.060,25.560 58.330,25.560 ZM53.994,23.048 C53.265,23.049 52.674,22.459 52.672,21.730 L52.672,19.220 C52.672,18.490 53.264,17.898 53.994,17.898 C54.725,17.898 55.317,18.490 55.317,19.220 L55.317,21.726 C55.317,21.727 55.317,21.727 55.317,21.728 C55.316,22.457 54.724,23.049 53.994,23.048 ZM53.994,25.324 C54.725,25.324 55.317,25.916 55.317,26.646 L55.317,29.157 C55.317,29.887 54.725,30.479 53.994,30.479 C53.264,30.479 52.672,29.887 52.672,29.157 L52.672,26.646 C52.672,25.916 53.264,25.324 53.994,25.324 ZM51.548,25.560 L49.659,25.560 C48.928,25.560 48.336,24.968 48.336,24.238 C48.336,23.507 48.928,22.915 49.659,22.915 L51.548,22.915 C52.278,22.915 52.870,23.507 52.870,24.238 C52.870,24.968 52.278,25.560 51.548,25.560 ZM41.809,11.197 L39.920,11.197 C39.189,11.197 38.597,10.605 38.597,9.875 C38.597,9.144 39.189,8.552 39.920,8.552 L41.809,8.552 C42.539,8.552 43.131,9.144 43.131,9.875 C43.131,10.605 42.539,11.197 41.809,11.197 ZM37.470,8.685 C37.469,8.685 37.469,8.685 37.468,8.685 C36.739,8.685 36.147,8.092 36.148,7.363 L36.148,4.853 C36.148,4.123 36.740,3.531 37.470,3.531 C38.200,3.531 38.792,4.123 38.792,4.853 L38.792,7.363 C38.792,7.363 38.792,7.363 38.792,7.364 C38.792,8.094 38.200,8.685 37.470,8.685 ZM37.470,10.961 C37.470,10.961 37.471,10.961 37.471,10.961 C38.201,10.962 38.793,11.554 38.792,12.284 L38.792,14.794 C38.792,15.524 38.200,16.116 37.470,16.116 C36.740,16.116 36.148,15.524 36.148,14.794 L36.148,12.284 C36.148,12.283 36.148,12.283 36.148,12.282 C36.148,11.552 36.740,10.961 37.470,10.961 ZM35.023,11.197 L33.134,11.197 C32.403,11.197 31.811,10.605 31.811,9.875 C31.811,9.144 32.403,8.552 33.134,8.552 L35.023,8.552 C35.753,8.552 36.345,9.144 36.345,9.875 C36.345,10.605 35.753,11.197 35.023,11.197 ZM10.753,33.040 L8.864,33.040 C8.134,33.040 7.542,32.448 7.542,31.718 C7.542,30.988 8.134,30.396 8.864,30.396 L10.753,30.396 C11.483,30.396 12.076,30.988 12.076,31.718 C12.076,32.448 11.483,33.040 10.753,33.040 ZM6.414,30.529 C5.685,30.529 5.094,29.939 5.092,29.210 L5.092,26.700 C5.092,25.970 5.684,25.377 6.414,25.377 C7.145,25.377 7.737,25.970 7.737,26.700 L7.737,29.206 C7.737,29.206 7.737,29.207 7.737,29.208 C7.736,29.938 7.144,30.529 6.414,30.529 ZM6.414,32.805 C6.415,32.805 6.415,32.805 6.416,32.805 C7.146,32.806 7.737,33.397 7.737,34.127 L7.737,36.637 C7.737,37.368 7.145,37.960 6.414,37.960 C5.684,37.960 5.092,37.368 5.092,36.637 L5.092,34.127 C5.092,34.127 5.092,34.126 5.092,34.126 C5.093,33.396 5.685,32.805 6.414,32.805 ZM5.286,31.719 C5.286,32.449 4.694,33.040 3.964,33.040 L2.079,33.040 C1.348,33.040 0.756,32.448 0.756,31.718 C0.756,30.988 1.348,30.396 2.079,30.396 L3.964,30.396 C4.694,30.396 5.286,30.988 5.286,31.718 C5.286,31.718 5.286,31.719 5.286,31.719 Z"/>
</svg>