<svg
 xmlns="http://www.w3.org/2000/svg"
 xmlns:xlink="http://www.w3.org/1999/xlink"
 width="68px" height="72px">
<path fill-rule="evenodd"  fill="rgb(254, 219, 49)"
 d="M65.930,71.615 L1.579,71.615 C0.815,71.615 0.195,70.995 0.195,70.231 C0.195,69.466 0.815,68.847 1.579,68.847 L4.780,68.847 L4.780,56.358 C4.780,54.307 6.449,52.637 8.501,52.637 L15.289,52.637 C17.341,52.637 19.011,54.306 19.011,56.358 L19.011,68.847 L26.721,68.847 L26.721,44.733 C26.721,42.682 28.391,41.012 30.443,41.012 L37.230,41.012 C39.282,41.012 40.952,42.681 40.952,44.733 L40.952,68.847 L48.662,68.847 L48.662,24.758 C48.662,22.705 50.332,21.036 52.384,21.036 L59.171,21.036 C61.224,21.036 62.893,22.705 62.893,24.758 L62.893,68.847 L65.930,68.847 C66.694,68.847 67.314,69.466 67.314,70.231 C67.314,70.995 66.694,71.615 65.930,71.615 ZM16.241,56.358 C16.241,55.833 15.814,55.406 15.289,55.406 L8.501,55.406 C7.976,55.406 7.549,55.833 7.549,56.358 L7.549,68.847 L16.241,68.847 L16.241,56.358 ZM38.183,44.733 C38.183,44.208 37.755,43.780 37.230,43.780 L30.443,43.780 C29.917,43.780 29.490,44.208 29.490,44.733 L29.490,68.847 L38.183,68.847 L38.183,44.733 ZM60.124,24.758 C60.124,24.232 59.697,23.805 59.171,23.805 L52.384,23.805 C51.859,23.805 51.431,24.232 51.431,24.758 L51.431,68.847 L60.124,68.847 L60.124,24.758 ZM61.509,11.525 C60.744,11.525 60.124,10.905 60.124,10.140 L60.124,5.460 L45.459,20.125 C44.918,20.665 44.041,20.665 43.501,20.125 L38.339,14.963 L14.430,38.872 C14.159,39.143 13.805,39.277 13.451,39.277 C13.096,39.277 12.742,39.143 12.472,38.872 C11.931,38.331 11.931,37.455 12.472,36.914 L37.360,12.027 C37.620,11.767 37.972,11.621 38.339,11.621 C38.707,11.621 39.059,11.767 39.318,12.027 L44.480,17.188 L58.166,3.502 L52.994,3.502 C52.230,3.502 51.610,2.882 51.610,2.117 C51.610,1.352 52.230,0.733 52.994,0.733 L61.370,0.733 C61.393,0.733 61.415,0.735 61.437,0.736 C61.815,0.717 62.199,0.850 62.488,1.138 C62.776,1.427 62.909,1.810 62.890,2.189 C62.891,2.211 62.893,2.233 62.893,2.256 L62.893,10.140 C62.893,10.905 62.274,11.525 61.509,11.525 ZM8.784,44.108 C8.019,44.108 7.400,43.488 7.400,42.724 C7.400,41.959 8.019,41.340 8.784,41.340 C9.549,41.340 10.169,41.959 10.169,42.724 C10.169,43.488 9.549,44.108 8.784,44.108 Z"/>
</svg>