<svg
 xmlns="http://www.w3.org/2000/svg"
 xmlns:xlink="http://www.w3.org/1999/xlink"
 width="67px" height="67px">
<path fill-rule="evenodd"  fill="rgb(254, 219, 49)"
 d="M65.294,66.766 L56.644,66.766 L10.512,66.766 L1.862,66.766 C1.066,66.766 0.420,66.121 0.420,65.324 L0.420,10.545 C0.420,9.749 1.066,9.104 1.862,9.104 L22.045,9.104 C22.840,9.104 23.486,9.749 23.486,10.545 C23.486,11.341 22.840,11.987 22.045,11.987 L3.303,11.987 L3.303,63.883 L9.070,63.883 L9.070,19.194 C9.070,18.399 9.716,17.753 10.512,17.753 L32.136,17.753 L32.136,1.895 C32.136,1.100 32.782,0.454 33.578,0.454 C34.373,0.454 35.019,1.100 35.019,1.895 L35.019,17.753 L56.644,17.753 C57.440,17.753 58.085,18.399 58.085,19.194 L58.085,63.883 L63.852,63.883 L63.852,11.987 L45.111,11.987 C44.315,11.987 43.669,11.341 43.669,10.545 C43.669,9.749 44.315,9.104 45.111,9.104 L65.294,9.104 C66.089,9.104 66.735,9.749 66.735,10.545 L66.735,65.324 C66.735,66.121 66.089,66.766 65.294,66.766 ZM55.202,20.636 L11.953,20.636 L11.953,63.883 L55.202,63.883 L55.202,20.636 ZM25.947,44.123 L32.136,50.312 L32.136,30.727 C32.136,29.931 32.782,29.286 33.578,29.286 C34.373,29.286 35.019,29.931 35.019,30.727 L35.019,50.312 L41.208,44.123 C41.772,43.560 42.683,43.560 43.247,44.123 C43.810,44.687 43.810,45.598 43.247,46.162 L34.597,54.811 C34.464,54.944 34.304,55.049 34.128,55.123 C33.952,55.195 33.765,55.234 33.578,55.234 C33.390,55.234 33.203,55.195 33.027,55.123 C32.851,55.049 32.691,54.944 32.558,54.811 L23.909,46.162 C23.345,45.598 23.345,44.687 23.909,44.123 C24.472,43.560 25.383,43.560 25.947,44.123 Z"/>
</svg>