<svg
 xmlns="http://www.w3.org/2000/svg"
 xmlns:xlink="http://www.w3.org/1999/xlink"
 width="62px" height="58px">
<path fill-rule="evenodd"  fill="rgb(254, 219, 49)"
 d="M56.591,57.445 L37.767,57.445 C35.083,57.445 32.898,55.260 32.898,52.577 L32.898,43.490 C32.898,40.806 35.083,38.621 37.767,38.621 L56.591,38.621 C59.275,38.621 61.459,40.806 61.459,43.490 L61.459,52.577 C61.459,55.260 59.275,57.445 56.591,57.445 ZM58.214,43.490 C58.214,42.594 57.484,41.867 56.591,41.867 L37.767,41.867 C36.874,41.867 36.144,42.594 36.144,43.490 L36.144,52.577 C36.144,53.472 36.874,54.200 37.767,54.200 L56.591,54.200 C57.484,54.200 58.214,53.472 58.214,52.577 L58.214,43.490 ZM56.591,32.131 L37.767,32.131 C35.083,32.131 32.898,29.946 32.898,27.262 L32.898,5.842 C32.898,3.159 35.083,0.974 37.767,0.974 L56.591,0.974 C59.275,0.974 61.459,3.159 61.459,5.842 L61.459,27.262 C61.459,29.946 59.275,32.131 56.591,32.131 ZM58.214,5.842 C58.214,4.947 57.484,4.220 56.591,4.220 L37.767,4.220 C36.874,4.220 36.144,4.947 36.144,5.842 L36.144,27.262 C36.144,28.158 36.874,28.885 37.767,28.885 L56.591,28.885 C57.484,28.885 58.214,28.158 58.214,27.262 L58.214,5.842 ZM23.681,57.445 L4.856,57.445 C2.172,57.445 -0.012,55.260 -0.012,52.577 L-0.012,31.157 C-0.012,28.473 2.172,26.289 4.856,26.289 L23.681,26.289 C26.365,26.289 28.549,28.473 28.549,31.157 L28.549,52.577 C28.549,55.260 26.365,57.445 23.681,57.445 ZM25.304,31.157 C25.304,30.261 24.573,29.534 23.681,29.534 L4.856,29.534 C3.964,29.534 3.234,30.261 3.234,31.157 L3.234,52.577 C3.234,53.472 3.964,54.200 4.856,54.200 L23.681,54.200 C24.573,54.200 25.304,53.472 25.304,52.577 L25.304,31.157 ZM23.681,19.798 L4.856,19.798 C2.172,19.798 -0.012,17.614 -0.012,14.930 L-0.012,5.842 C-0.012,3.159 2.172,0.974 4.856,0.974 L23.681,0.974 C26.365,0.974 28.549,3.159 28.549,5.842 L28.549,14.930 C28.549,17.614 26.365,19.798 23.681,19.798 ZM25.304,5.842 C25.304,4.947 24.573,4.220 23.681,4.220 L4.856,4.220 C3.964,4.220 3.234,4.947 3.234,5.842 L3.234,14.930 C3.234,15.825 3.964,16.552 4.856,16.552 L23.681,16.552 C24.573,16.552 25.304,15.825 25.304,14.930 L25.304,5.842 Z"/>
</svg>