<svg
 xmlns="http://www.w3.org/2000/svg"
 xmlns:xlink="http://www.w3.org/1999/xlink"
 width="61px" height="75px">
<path fill-rule="evenodd"  fill="rgb(254, 219, 49)"
 d="M37.808,59.284 C36.399,59.649 35.189,60.536 34.399,61.784 L34.152,62.175 L43.538,62.175 C46.841,62.175 49.528,64.863 49.528,68.167 C49.528,71.470 46.841,74.157 43.538,74.157 L16.919,74.157 C13.615,74.157 10.927,71.470 10.927,68.167 C10.927,64.863 13.615,62.175 16.919,62.175 L26.304,62.175 L26.057,61.784 C25.268,60.536 24.057,59.649 22.648,59.284 C9.366,55.847 0.090,43.863 0.090,30.142 C0.090,13.543 13.610,0.039 30.228,0.039 C46.846,0.039 60.366,13.543 60.366,30.142 C60.366,43.864 51.090,55.847 37.808,59.284 ZM16.919,65.071 C15.212,65.071 13.823,66.459 13.823,68.167 C13.823,69.872 15.212,71.261 16.919,71.261 L43.538,71.261 C45.245,71.261 46.633,69.872 46.633,68.167 C46.633,66.459 45.245,65.071 43.538,65.071 L32.320,65.071 L31.452,66.445 C31.186,66.864 30.725,67.118 30.228,67.118 C29.732,67.118 29.270,66.864 29.005,66.445 L28.136,65.071 L16.919,65.071 ZM30.228,2.934 C15.206,2.934 2.985,15.139 2.985,30.142 C2.985,42.544 11.369,53.375 23.374,56.481 C25.498,57.031 27.320,58.365 28.504,60.236 L30.228,62.962 L31.953,60.236 C33.136,58.365 34.958,57.031 37.082,56.481 C49.087,53.375 57.471,42.544 57.471,30.142 C57.471,15.139 45.250,2.934 30.228,2.934 ZM50.925,40.700 L50.850,40.845 C50.480,41.554 49.606,41.829 48.897,41.460 C48.188,41.090 47.912,40.216 48.282,39.507 L48.346,39.383 C52.375,31.502 50.879,22.004 44.622,15.748 C36.695,7.821 23.790,7.830 15.852,15.767 C7.916,23.703 7.907,36.608 15.834,44.535 C22.152,50.851 31.716,52.314 39.634,48.174 C40.343,47.803 41.218,48.077 41.588,48.785 C41.959,49.494 41.685,50.368 40.976,50.739 C37.661,52.472 33.915,53.375 30.164,53.375 C29.057,53.375 27.951,53.297 26.855,53.137 C21.874,52.417 17.355,50.149 13.787,46.582 C9.400,42.195 6.986,36.361 6.990,30.154 C6.993,23.946 9.414,18.111 13.805,13.719 C22.871,4.654 37.614,4.646 46.670,13.701 C50.211,17.242 52.473,21.724 53.211,26.665 C53.934,31.507 53.143,36.360 50.925,40.700 ZM45.524,44.095 C46.138,44.051 46.729,44.419 46.965,44.985 C47.223,45.615 47.002,46.368 46.430,46.745 C45.933,47.073 45.271,47.065 44.784,46.717 C44.292,46.366 44.071,45.723 44.237,45.143 C44.402,44.565 44.924,44.139 45.524,44.095 Z"/>
</svg>