<svg
 xmlns="http://www.w3.org/2000/svg"
 xmlns:xlink="http://www.w3.org/1999/xlink"
 width="66px" height="80px">
<path fill-rule="evenodd"  fill="rgb(254, 219, 49)"
 d="M41.354,63.867 C39.844,64.258 38.546,65.210 37.701,66.547 L37.435,66.967 L47.496,66.967 C51.037,66.967 53.917,69.848 53.917,73.389 C53.917,76.930 51.036,79.811 47.496,79.811 L18.963,79.811 C15.422,79.811 12.541,76.930 12.541,73.389 C12.541,69.848 15.422,66.967 18.963,66.967 L29.023,66.967 L28.758,66.547 C27.912,65.210 26.615,64.258 25.105,63.867 C10.868,60.183 0.924,47.335 0.924,32.626 C0.924,14.832 15.416,0.356 33.229,0.356 C51.042,0.356 65.534,14.832 65.534,32.626 C65.534,47.336 55.591,60.183 41.354,63.867 ZM18.963,70.071 C17.133,70.071 15.645,71.560 15.645,73.389 C15.645,75.218 17.133,76.707 18.963,76.707 L47.496,76.707 C49.325,76.707 50.814,75.218 50.814,73.389 C50.814,71.560 49.325,70.071 47.496,70.071 L35.472,70.071 L34.541,71.543 C34.256,71.993 33.761,72.265 33.229,72.265 C32.697,72.265 32.202,71.993 31.918,71.543 L30.987,70.071 L18.963,70.071 ZM33.229,3.459 C17.128,3.459 4.028,16.544 4.028,32.626 C4.028,45.921 13.015,57.532 25.882,60.862 C28.159,61.452 30.112,62.882 31.381,64.888 L33.229,67.810 L35.078,64.888 C36.347,62.882 38.299,61.452 40.576,60.862 C53.444,57.532 62.431,45.921 62.431,32.626 C62.431,16.544 49.331,3.459 33.229,3.459 ZM55.414,43.944 L55.333,44.100 C54.938,44.860 54.001,45.156 53.240,44.759 C52.480,44.363 52.185,43.425 52.581,42.666 L52.650,42.533 C56.969,34.084 55.365,23.903 48.658,17.196 C40.162,8.698 26.328,8.708 17.820,17.216 C9.313,25.724 9.304,39.558 17.801,48.056 C24.572,54.827 34.824,56.395 43.312,51.957 C44.072,51.559 45.009,51.853 45.406,52.612 C45.803,53.372 45.509,54.310 44.750,54.707 C41.197,56.565 37.181,57.533 33.160,57.533 C31.974,57.533 30.789,57.448 29.614,57.278 C24.274,56.505 19.430,54.074 15.606,50.250 C10.904,45.547 8.316,39.293 8.320,32.639 C8.324,25.985 10.919,19.728 15.626,15.021 C25.343,5.303 41.146,5.294 50.853,15.001 C54.648,18.797 57.073,23.603 57.864,28.899 C58.640,34.089 57.792,39.292 55.414,43.944 ZM49.625,47.585 C50.283,47.538 50.916,47.931 51.169,48.539 C51.446,49.214 51.209,50.021 50.597,50.425 C50.063,50.777 49.353,50.768 48.832,50.395 C48.305,50.018 48.067,49.330 48.245,48.708 C48.422,48.088 48.982,47.632 49.625,47.585 Z"/>
</svg>