<svg
 xmlns="http://www.w3.org/2000/svg"
 xmlns:xlink="http://www.w3.org/1999/xlink"
 width="84px" height="88px">
<path fill-rule="evenodd"  fill="rgb(254, 219, 49)"
 d="M80.272,45.777 L83.416,48.022 C83.765,48.271 83.974,48.673 83.978,49.101 C83.981,49.529 83.780,49.935 83.435,50.191 L80.271,52.536 L83.414,54.782 C83.763,55.031 83.972,55.433 83.976,55.861 C83.980,56.291 83.778,56.695 83.434,56.950 L43.161,86.802 C42.926,86.979 42.644,87.067 42.363,87.067 C42.084,87.067 41.802,86.979 41.566,86.803 L1.294,56.950 C0.946,56.692 0.745,56.282 0.752,55.848 C0.759,55.414 0.977,55.011 1.335,54.767 L4.522,52.583 L1.294,50.191 C0.946,49.931 0.745,49.522 0.752,49.088 C0.759,48.654 0.977,48.251 1.335,48.006 L4.521,45.824 L1.294,43.432 C0.946,43.172 0.745,42.763 0.752,42.330 C0.759,41.895 0.977,41.492 1.335,41.247 L15.468,31.566 C15.468,31.566 15.469,31.566 15.470,31.566 L42.452,13.084 C42.918,12.765 43.531,12.773 43.989,13.100 L55.346,21.212 C55.346,21.213 55.346,21.213 55.347,21.214 L68.804,30.825 C68.804,30.825 68.804,30.825 68.804,30.825 C68.804,30.825 68.804,30.825 68.804,30.826 L83.416,41.263 C83.765,41.512 83.974,41.913 83.978,42.342 C83.981,42.771 83.780,43.176 83.435,43.432 L80.272,45.777 ZM4.402,55.916 L42.363,84.057 L80.357,55.893 L78.008,54.214 L43.163,80.044 C42.926,80.220 42.644,80.308 42.363,80.308 C42.084,80.308 41.802,80.220 41.566,80.044 L6.801,54.273 L4.402,55.916 ZM4.402,49.157 L42.363,77.298 L80.358,49.132 L78.009,47.454 L51.814,66.872 L43.163,73.285 C42.926,73.460 42.644,73.548 42.363,73.548 C42.084,73.548 41.802,73.460 41.566,73.285 L27.856,63.121 L14.638,53.324 L6.801,47.514 L4.402,49.157 ZM49.551,65.211 L46.811,49.838 L30.883,62.027 L42.363,70.537 L49.551,65.211 ZM4.402,42.398 L15.424,50.568 L31.478,38.283 L16.470,34.131 L4.402,42.398 ZM43.194,15.827 L19.363,32.150 L34.149,36.238 L52.312,22.340 L43.194,15.827 ZM54.594,23.970 L35.249,38.773 L17.666,52.229 L28.642,60.365 L46.931,46.371 C46.932,46.370 46.932,46.370 46.933,46.370 L65.772,31.953 L54.594,23.970 ZM68.053,33.583 L49.208,48.005 L51.955,63.427 L80.358,42.374 L68.053,33.583 ZM51.970,12.701 C51.708,12.963 51.365,13.095 51.022,13.095 C50.678,13.095 50.336,12.963 50.074,12.701 C49.551,12.178 49.551,11.329 50.074,10.806 L54.320,6.559 C54.843,6.036 55.692,6.036 56.216,6.559 C56.739,7.083 56.739,7.931 56.216,8.455 L51.970,12.701 ZM43.303,9.001 C42.562,9.001 41.962,8.402 41.962,7.660 L41.962,2.298 C41.962,1.556 42.562,0.957 43.303,0.957 C44.043,0.957 44.643,1.556 44.643,2.298 L44.643,7.660 C44.643,8.402 44.044,9.001 43.303,9.001 ZM35.396,13.095 C35.053,13.095 34.711,12.963 34.448,12.701 L30.203,8.455 C29.679,7.931 29.679,7.083 30.203,6.559 C30.726,6.036 31.575,6.036 32.098,6.559 L36.345,10.806 C36.868,11.329 36.868,12.178 36.345,12.701 C36.082,12.963 35.739,13.095 35.396,13.095 Z"/>
</svg>