<svg
 xmlns="http://www.w3.org/2000/svg"
 xmlns:xlink="http://www.w3.org/1999/xlink"
 width="62px" height="62px">
<path fill-rule="evenodd"  fill="rgb(254, 219, 49)"
 d="M57.909,13.777 L55.677,13.777 L55.677,21.403 C55.677,34.948 44.658,45.968 31.113,45.968 C17.568,45.968 6.548,34.948 6.548,21.403 L6.548,13.777 L4.316,13.777 C2.355,13.777 0.759,12.181 0.759,10.219 L0.759,3.868 C0.759,1.907 2.355,0.311 4.316,0.311 L57.909,0.311 C59.870,0.311 61.466,1.907 61.466,3.868 L61.466,10.219 C61.466,12.181 59.870,13.777 57.909,13.777 ZM10.105,21.403 C10.105,32.987 19.529,42.411 31.112,42.411 C42.696,42.411 52.120,32.987 52.120,21.403 L52.120,13.777 L10.105,13.777 L10.105,21.403 ZM57.909,3.868 L4.316,3.868 L4.316,10.219 C4.317,10.219 57.910,10.219 57.911,10.219 L57.909,3.868 ZM31.112,38.766 C25.228,38.766 20.441,33.978 20.441,28.094 C20.441,22.210 25.228,17.422 31.112,17.422 C36.997,17.422 41.784,22.210 41.784,28.094 C41.784,33.978 36.997,38.766 31.112,38.766 ZM31.112,20.979 C27.190,20.979 23.998,24.171 23.998,28.094 C23.998,32.017 27.190,35.209 31.112,35.209 C35.035,35.209 38.227,32.017 38.227,28.094 C38.227,24.171 35.035,20.979 31.112,20.979 ZM31.112,29.872 C30.130,29.872 29.334,29.076 29.334,28.094 C29.334,27.111 30.130,26.315 31.112,26.315 C32.095,26.315 32.891,27.111 32.891,28.094 C32.891,29.076 32.095,29.872 31.112,29.872 ZM2.238,41.692 C3.207,41.526 4.125,42.177 4.290,43.145 C5.586,50.725 11.102,56.262 18.706,57.562 C19.674,57.728 20.325,58.646 20.159,59.615 C19.994,60.583 19.074,61.234 18.106,61.068 C9.032,59.517 2.336,52.819 0.784,43.745 C0.619,42.777 1.269,41.858 2.238,41.692 ZM8.061,43.017 C7.895,42.049 8.546,41.130 9.514,40.964 C10.483,40.799 11.401,41.450 11.567,42.418 C12.288,46.631 15.173,49.556 19.434,50.285 C20.402,50.451 21.053,51.369 20.887,52.338 C20.722,53.306 19.802,53.957 18.834,53.791 C13.108,52.813 9.040,48.740 8.061,43.017 ZM42.791,50.285 C44.519,49.989 46.031,49.335 47.285,48.342 C49.153,46.864 50.257,44.760 50.658,42.418 C50.823,41.450 51.743,40.799 52.711,40.964 C53.679,41.130 54.329,42.049 54.164,43.017 C53.187,48.733 49.125,52.811 43.391,53.791 C42.424,53.957 41.504,53.308 41.338,52.338 C41.172,51.369 41.823,50.450 42.791,50.285 ZM43.519,57.562 C51.250,56.240 56.660,50.596 57.934,43.145 C58.100,42.177 59.018,41.526 59.987,41.691 C60.955,41.858 61.606,42.777 61.441,43.745 C59.884,52.848 53.159,59.523 44.119,61.068 C43.152,61.234 42.231,60.585 42.066,59.615 C41.900,58.646 42.551,57.728 43.519,57.562 Z"/>
</svg>