<svg
 xmlns="http://www.w3.org/2000/svg"
 xmlns:xlink="http://www.w3.org/1999/xlink"
 width="85px" height="62px">
<path fill-rule="evenodd"  fill="rgb(254, 219, 49)"
 d="M82.801,61.980 L77.200,61.980 C76.426,61.980 75.799,61.353 75.799,60.580 L75.799,11.564 L8.583,11.564 L8.583,60.580 C8.583,61.353 7.956,61.980 7.182,61.980 L1.581,61.980 C0.808,61.980 0.181,61.353 0.181,60.580 L0.181,1.927 C0.181,1.330 0.560,0.799 1.125,0.604 L2.981,0.361 L81.401,0.361 L83.257,0.604 C83.822,0.799 84.201,1.330 84.201,1.927 L84.201,60.580 C84.201,61.353 83.574,61.980 82.801,61.980 ZM5.782,3.162 L2.981,3.162 L2.981,59.179 L5.782,59.179 L5.782,3.162 ZM75.799,3.162 L8.583,3.162 L8.583,8.763 L75.799,8.763 L75.799,3.162 ZM81.401,3.162 L78.600,3.162 L78.600,59.179 L81.401,59.179 L81.401,3.162 ZM12.784,59.179 L18.385,59.179 L18.385,38.173 C18.385,37.399 19.012,36.772 19.785,36.772 L29.588,36.772 L29.588,15.766 C29.588,14.992 30.215,14.365 30.988,14.365 L53.394,14.365 C54.167,14.365 54.794,14.992 54.794,15.766 L54.794,36.772 L64.596,36.772 C65.370,36.772 65.997,37.399 65.997,38.173 L65.997,59.179 L71.598,59.179 C72.372,59.179 72.999,59.806 72.999,60.580 C72.999,61.353 72.372,61.980 71.598,61.980 L12.784,61.980 C12.010,61.980 11.383,61.353 11.383,60.580 C11.383,59.806 12.010,59.179 12.784,59.179 ZM29.588,39.573 L29.588,47.110 L30.362,46.722 C30.756,46.526 31.220,46.526 31.614,46.722 L32.389,47.110 L32.389,39.573 L30.988,39.573 L29.588,39.573 ZM43.591,17.166 L40.791,17.166 L40.791,24.703 L41.565,24.315 C41.959,24.119 42.423,24.119 42.817,24.315 L43.591,24.703 L43.591,17.166 ZM51.993,17.166 L46.392,17.166 L46.392,26.969 C46.392,27.187 46.342,27.401 46.244,27.596 C45.899,28.288 45.058,28.568 44.366,28.223 L42.191,27.134 L40.016,28.230 C39.820,28.328 39.603,28.379 39.383,28.377 C38.609,28.373 37.986,27.743 37.990,26.969 L37.990,17.166 L32.389,17.166 L32.389,36.772 L51.993,36.772 L51.993,17.166 ZM54.794,39.573 L51.993,39.573 L51.993,47.110 L52.768,46.722 C53.162,46.526 53.626,46.526 54.020,46.722 L54.794,47.110 L54.794,39.573 ZM43.591,59.179 L63.196,59.179 L63.196,39.573 L57.595,39.573 L57.595,49.376 C57.595,49.594 57.544,49.809 57.447,50.003 C57.101,50.695 56.260,50.976 55.569,50.630 L53.394,49.542 L51.219,50.637 C51.022,50.735 50.805,50.786 50.585,50.784 C49.812,50.780 49.188,50.150 49.193,49.376 L49.193,39.573 L43.591,39.573 L43.591,59.179 ZM21.186,59.179 L40.791,59.179 L40.791,39.573 L35.189,39.573 L35.189,49.376 C35.189,49.594 35.139,49.809 35.042,50.003 C34.696,50.695 33.855,50.976 33.163,50.630 L30.988,49.542 L28.813,50.637 C28.617,50.735 28.400,50.786 28.180,50.784 C27.407,50.780 26.783,50.150 26.787,49.376 L26.787,39.573 L21.186,39.573 L21.186,59.179 Z"/>
</svg>