<?xml version="1.0" encoding="utf-8"?><svg viewBox="0 0 52 51" xmlns="http://www.w3.org/2000/svg" xmlns:xlink="http://www.w3.org/1999/xlink"><style>:root>svg{display:none}:root>svg:target{display:block}</style><svg fill="currentColor" viewBox="0 0 29 25" id="ic_email" xmlns="http://www.w3.org/2000/svg"><path d="M24.288 24.866H4.357A4.358 4.358 0 0 1 .001 20.51V8.659l13.674 6.683c.279.174.593.243.872.243.278 0 .592-.069.871-.243l13.226-6.683V20.51a4.358 4.358 0 0 1-4.356 4.356zM.141 3.946C.559 1.995 2.301.531 4.357.531h19.931c2.056 0 3.798 1.464 4.216 3.415l-13.923 7.135L.141 3.946z"/></svg><svg fill="currentColor" viewBox="0 0 22 23" id="ic_instagram" xmlns="http://www.w3.org/2000/svg"><path d="M21.686 16.059c-.051 1.135-.235 1.913-.5 2.593a5.477 5.477 0 0 1-3.141 3.128c-.68.263-1.464.446-2.605.496-1.145.051-1.509.063-4.424.063-2.915 0-3.28-.012-4.425-.063-1.141-.05-1.921-.233-2.605-.496a5.296 5.296 0 0 1-1.9-1.232 5.274 5.274 0 0 1-1.241-1.896c-.264-.676-.449-1.458-.499-2.593-.05-1.14-.063-1.503-.063-4.406 0-2.902.013-3.265.067-4.409.05-1.136.235-1.912.499-2.593a5.274 5.274 0 0 1 1.237-1.892 5.25 5.25 0 0 1 1.905-1.236c.679-.263 1.463-.446 2.604-.497C7.74.976 8.105.963 11.02.963s3.28.013 4.429.068c1.14.05 1.921.234 2.604.496a5.283 5.283 0 0 1 1.9 1.232c.55.535.969 1.177 1.242 1.896.264.677.448 1.458.499 2.593.05 1.14.054 1.503.054 4.405 0 2.903-.012 3.266-.062 4.406zM11.02 8.092a3.57 3.57 0 0 0-3.578 3.561 3.57 3.57 0 0 0 3.578 3.562 3.57 3.57 0 0 0 3.577-3.562 3.57 3.57 0 0 0-3.577-3.561zm5.733-3.429c-.711 0-1.287.574-1.287 1.282 0 .708.576 1.282 1.287 1.282s1.288-.574 1.288-1.282c0-.708-.577-1.282-1.288-1.282z"/></svg><svg fill="currentColor" viewBox="0 0 12 15" id="ic_location" xmlns="http://www.w3.org/2000/svg"><path d="M5.854.304C3.024.403.674 2.611.402 5.429a5.743 5.743 0 0 0 .076 1.632s.009.062.038.178c.088.391.219.771.383 1.128.569 1.348 1.886 3.606 4.841 6.062a.496.496 0 0 0 .631 0c2.954-2.453 4.271-4.711 4.843-6.065.167-.357.295-.734.383-1.127.026-.114.038-.179.038-.179A5.679 5.679 0 0 0 5.854.304zm.201 8.503a2.759 2.759 0 1 1 0-5.517 2.759 2.759 0 0 1 0 5.517z"/></svg><svg fill="currentColor" viewBox="0 0 27 27" id="ic_phone" xmlns="http://www.w3.org/2000/svg"><path d="M25.642 19.732l-3.632-3.633c-1.298-1.297-3.503-.778-4.022.908-.389 1.169-1.687 1.817-2.854 1.558-2.595-.649-6.098-4.023-6.746-6.746-.39-1.168.389-2.466 1.556-2.855 1.687-.519 2.206-2.724.909-4.021L7.22 1.31c-1.038-.909-2.595-.909-3.503 0L1.252 3.775c-2.465 2.594.26 9.47 6.357 15.568 6.098 6.098 12.974 8.952 15.568 6.357l2.465-2.466c.908-1.037.908-2.594 0-3.502z"/></svg><svg fill="currentColor" viewBox="0 0 25 20" id="ic_photo" xmlns="http://www.w3.org/2000/svg"><path d="M21.304 3.575h-3.44v-.354a2.86 2.86 0 0 0-2.86-2.86h-5.47a2.86 2.86 0 0 0-2.86 2.86v.354H3.233a2.86 2.86 0 0 0-2.86 2.86v10.381a2.86 2.86 0 0 0 2.86 2.86h18.072a2.86 2.86 0 0 0 2.86-2.86V6.435a2.86 2.86 0 0 0-2.861-2.86zm-9.036 13.134a5.407 5.407 0 0 1-5.402-5.402 5.407 5.407 0 0 1 5.402-5.402 5.407 5.407 0 0 1 5.402 5.402 5.408 5.408 0 0 1-5.402 5.402zm2.86-5.402a2.865 2.865 0 0 1-2.86 2.86 2.865 2.865 0 0 1-2.86-2.86 2.865 2.865 0 0 1 2.86-2.86 2.865 2.865 0 0 1 2.86 2.86z"/></svg><svg fill="currentColor" viewBox="0 0 52 51" id="ic_search" xmlns="http://www.w3.org/2000/svg"><path d="M51.753 48.779L49.632 50.9l-12.26-12.259c-3.869 3.385-8.92 5.453-14.466 5.453-12.15 0-22-9.85-22-22 0-12.151 9.85-22 22-22 12.151 0 22 9.849 22 22 0 5.524-2.051 10.56-5.414 14.424l12.261 12.261zM22.906 2.719c-10.7 0-19.375 8.674-19.375 19.375 0 10.7 8.675 19.375 19.375 19.375 10.701 0 19.375-8.675 19.375-19.375 0-10.701-8.674-19.375-19.375-19.375z"/></svg><svg fill="currentColor" viewBox="0 0 35 35" id="ic_site" xmlns="http://www.w3.org/2000/svg"><path d="M25.091 10.206h7.668l.028-.001a16.786 16.786 0 0 1 1.58 6.228h-8.583a36.358 36.358 0 0 0-.693-6.227zM21.499.997a16.798 16.798 0 0 1 7.948 4.475 17.082 17.082 0 0 1 2.233 2.754h-7.054c-.737-2.75-1.801-5.215-3.127-7.229zm1.075 7.229H12.417c.218-.756.463-1.491.736-2.2.846-2.195 1.909-4.044 3.132-5.461a16.77 16.77 0 0 1 2.422 0c1.222 1.417 2.285 3.266 3.131 5.461.273.709.518 1.444.736 2.2zm-19.263 0a17.029 17.029 0 0 1 2.233-2.754A16.798 16.798 0 0 1 13.492.997c-1.326 2.014-2.389 4.479-3.127 7.229H3.311zm5.896 8.207H.624a16.767 16.767 0 0 1 1.58-6.228l.028.001h7.669a36.258 36.258 0 0 0-.694 6.227zm.694 8.208H2.232l-.028.002a16.767 16.767 0 0 1-1.58-6.229h8.583c.056 2.156.294 4.25.694 6.227zm3.591 9.21a16.8 16.8 0 0 1-7.948-4.476 17.021 17.021 0 0 1-2.233-2.753h7.054c.738 2.75 1.801 5.214 3.127 7.229zm-1.075-7.229h10.157a26.242 26.242 0 0 1-.737 2.199c-.845 2.196-1.908 4.044-3.13 5.462a17.43 17.43 0 0 1-2.423 0c-1.222-1.418-2.285-3.266-3.131-5.462a26.608 26.608 0 0 1-.736-2.199zm-.497-16.416h11.151c.426 1.981.674 4.078.732 6.227H11.188c.058-2.149.306-4.246.732-6.227zm11.151 14.435H11.92a34.082 34.082 0 0 1-.732-6.227h12.615a34.092 34.092 0 0 1-.732 6.227zm8.609 1.981a17.028 17.028 0 0 1-2.234 2.753 16.792 16.792 0 0 1-7.947 4.476c1.326-2.015 2.39-4.479 3.127-7.229h7.054zm-5.896-8.208h8.583a16.786 16.786 0 0 1-1.58 6.229l-.028-.002h-7.668c.399-1.977.637-4.071.693-6.227z"/></svg><svg fill="currentColor" viewBox="0 0 32 31" id="ic_time" xmlns="http://www.w3.org/2000/svg"><path d="M15.914.044C7.532.044.714 6.863.714 15.245c0 8.382 6.818 15.201 15.2 15.201s15.201-6.819 15.201-15.201c0-8.382-6.819-15.201-15.201-15.201zm7.143 23.064a1.746 1.746 0 0 1-1.099.371c-.398 0-.796-.124-1.099-.371l-6.347-6.334c-.293-.236-.456-.559-.456-.895V7.644c0-.7.697-1.266 1.555-1.266.859 0 1.555.566 1.555 1.266v7.71l6.486 5.487c.608.495.013 1.772-.595 2.267z"/></svg><svg fill="currentColor" viewBox="0 0 29 32" id="ic_user" xmlns="http://www.w3.org/2000/svg"><path d="M27.86 24.047c-.284.497-.603.958-.958 1.419-.496.674-1.064 1.277-1.631 1.844-.497.497-1.064.994-1.632 1.419a16.065 16.065 0 0 1-9.647 3.192 16.068 16.068 0 0 1-9.648-3.192c-.567-.461-1.135-.922-1.631-1.419a13.477 13.477 0 0 1-1.632-1.844 14.224 14.224 0 0 1-.958-1.419c-.106-.213-.142-.461-.035-.674a8.676 8.676 0 0 1 .816-1.49 10.02 10.02 0 0 1 6.987-4.398c.355-.071.745.035 1.028.248a8.545 8.545 0 0 0 5.108 1.667 8.545 8.545 0 0 0 5.108-1.667c.283-.213.674-.284 1.028-.248 2.838.39 5.356 1.986 6.988 4.398.319.461.602.958.815 1.49.107.213.071.461-.106.674zm-13.833-7.165c-4.469 0-8.122-3.653-8.122-8.123 0-4.469 3.653-8.122 8.122-8.122 4.469 0 8.122 3.653 8.122 8.122 0 4.47-3.653 8.123-8.122 8.123z"/></svg><svg viewBox="0 0 21 23" id="ic_video_play" xmlns="http://www.w3.org/2000/svg"><path fill="currentColor" d="M17.681 15.703L7.224 21.881a4.63 4.63 0 0 1-4.757.008c-1.495-.876-2.388-2.45-2.388-4.21V5.323c0-1.759.893-3.333 2.388-4.21a4.632 4.632 0 0 1 4.757.007L17.681 7.3c3.149 1.79 3.149 6.613 0 8.403z"/></svg><svg fill="currentColor" viewBox="0 0 28 16" id="ic_vkontakte" xmlns="http://www.w3.org/2000/svg"><path d="M26.888 14.238c-.07-.118-.505-1.063-2.598-3.006-2.192-2.034-1.898-1.705.742-5.222 1.608-2.143 2.25-3.451 2.049-4.01-.191-.534-1.373-.393-1.373-.393l-3.932.023s-.291-.039-.509.09c-.211.128-.347.422-.347.422s-.623 1.658-1.453 3.069c-1.752 2.973-2.453 3.131-2.739 2.946-.666-.43-.499-1.73-.499-2.653 0-2.883.436-4.085-.852-4.395-.429-.104-.743-.172-1.837-.184-1.403-.015-2.592.005-3.264.334-.448.219-.794.709-.583.736.26.034.849.158 1.162.584.403.548.389 1.781.389 1.781s.232 3.393-.541 3.815c-.532.29-1.26-.301-2.822-3-.799-1.382-1.404-2.912-1.404-2.912s-.116-.285-.324-.437c-.252-.184-.605-.244-.605-.244l-3.739.023s-.561.016-.767.261c-.183.217-.015.665-.015.665s2.928 6.848 6.241 10.3c3.04 3.165 6.491 2.957 6.491 2.957h1.564s.472-.051.713-.313c.222-.238.214-.686.214-.686s-.031-2.098.944-2.408c.96-.304 2.193 2.028 3.499 2.926.988.679 1.739.53 1.739.53l3.494-.049s1.829-.112.962-1.55z"/></svg><svg fill="currentColor" viewBox="0 0 22 22" id="ic_whatsapp" xmlns="http://www.w3.org/2000/svg"><path d="M11.23.208h-.005C5.448.208.75 4.907.75 10.684c0 2.293.739 4.418 1.995 6.143l-1.306 3.892 4.027-1.288a10.391 10.391 0 0 0 5.764 1.731c5.777 0 10.474-4.7 10.474-10.478C21.704 4.908 17.007.208 11.23.208zm6.097 14.796c-.253.712-1.257 1.305-2.057 1.478-.547.116-1.262.209-3.669-.789-3.079-1.275-5.062-4.404-5.217-4.608-.148-.203-1.244-1.656-1.244-3.159 0-1.504.764-2.236 1.072-2.55.252-.259.67-.376 1.071-.376.13 0 .246.006.351.011.308.013.462.032.665.518.253.609.868 2.112.942 2.267.074.155.149.364.044.567-.098.209-.184.303-.339.48-.154.179-.301.315-.456.506-.141.166-.301.345-.123.652.178.301.794 1.306 1.7 2.113 1.17 1.041 2.118 1.374 2.457 1.516.253.104.554.079.739-.118.234-.252.524-.672.818-1.084.21-.296.474-.332.752-.228.283.098 1.78.839 2.087.991.308.155.511.229.586.358.073.13.073.739-.179 1.455z"/></svg></svg>